<svg width="30" height="28" viewBox="0 0 30 28" fill="none" xmlns="http://www.w3.org/2000/svg">
<path d="M15 28H8.5C8.22388 28 8 27.791 8 27.5333V24.2667H0.5C0.223877 24.2667 0 24.0577 0 23.8V0.466667C0 0.208952 0.223877 0 0.5 0H15C15.2761 0 15.5 0.208952 15.5 0.466667V27.5333C15.5 27.791 15.2761 28 15 28ZM14.5 3.73333H9V4.66667H14.5V3.73333ZM1 21H8V7H1V21ZM14.5 22.8667H9V24.2667H14.5V22.8667ZM1 6.06667H8V4.66667H1V6.06667ZM9 5.6V21.9333H14.5V5.6H9ZM14.5 27.0667V25.2H9V27.0667H14.5ZM8 23.3333V21.9333H1V23.3333H8ZM1 3.73333H8V0.933332H1V3.73333ZM9 0.933332V2.8H14.5V0.933332H9Z" fill="#288DD5"/>
<path d="M29.984 2.45093L23.984 23.9176C23.9506 24.0379 23.8671 24.1407 23.7519 24.2033C23.6369 24.2658 23.4999 24.2829 23.3712 24.2507L15.8712 22.3841C15.6056 22.318 15.4469 22.0641 15.5163 21.8158L21.5163 0.349108C21.5497 0.228794 21.6335 0.126028 21.7487 0.0635929C21.8637 0.00138474 22.0006 -0.0154762 22.1291 0.01688L29.6291 1.88355C29.8942 1.94963 30.0526 2.20301 29.984 2.45093ZM17.4062 18.7517L23.9401 20.3775L24.1752 19.5376L17.6418 17.9093L17.4062 18.7517ZM24.4276 18.632L27.3275 8.24986L20.7961 6.62336L17.8961 17.0062L24.4276 18.632ZM27.5822 7.34637L28.0941 5.51502L21.5602 3.88921L21.0502 5.71988L27.5822 7.34637ZM23.1432 23.2283L23.6877 21.2801L17.1537 19.6547L16.6098 21.602L23.1432 23.2283ZM22.3571 1.0384L21.8127 2.98664L28.3466 4.61291L28.8905 2.66558L22.3571 1.0384Z" fill="#288DD5"/>
<path d="M6.50024 19.6001H2.50024C2.22412 19.6001 2.00024 19.3911 2.00024 19.1334V15.4001C2.00024 15.1424 2.22412 14.9334 2.50024 14.9334H6.50024C6.77637 14.9334 7.00024 15.1424 7.00024 15.4001V19.1334C7.00024 19.3911 6.77637 19.6001 6.50024 19.6001ZM6.00024 15.8668H3.00024V18.6668H6.00024V15.8668Z" fill="#288DD5"/>
</svg>
