<svg width="34" height="35" viewBox="0 0 34 35" fill="none" xmlns="http://www.w3.org/2000/svg">
<path d="M9.5625 17.0215H7.4375C6.88739 17.0215 6.44141 17.4806 6.44141 18.0469C6.44141 18.6132 6.88739 19.0723 7.4375 19.0723H9.5625C10.1126 19.0723 10.5586 18.6132 10.5586 18.0469C10.5586 17.4806 10.1126 17.0215 9.5625 17.0215Z" fill="#288DD5"/>
<path d="M9.5625 21.3965H7.4375C6.88739 21.3965 6.44141 21.8556 6.44141 22.4219C6.44141 22.9882 6.88739 23.4473 7.4375 23.4473H9.5625C10.1126 23.4473 10.5586 22.9882 10.5586 22.4219C10.5586 21.8556 10.1126 21.3965 9.5625 21.3965Z" fill="#288DD5"/>
<path d="M9.5625 25.7715H7.4375C6.88739 25.7715 6.44141 26.2306 6.44141 26.7969C6.44141 27.3632 6.88739 27.8223 7.4375 27.8223H9.5625C10.1126 27.8223 10.5586 27.3632 10.5586 26.7969C10.5586 26.2306 10.1126 25.7715 9.5625 25.7715Z" fill="#288DD5"/>
<path d="M18.0625 17.0215H15.9375C15.3874 17.0215 14.9414 17.4806 14.9414 18.0469C14.9414 18.6132 15.3874 19.0723 15.9375 19.0723H18.0625C18.6126 19.0723 19.0586 18.6132 19.0586 18.0469C19.0586 17.4806 18.6126 17.0215 18.0625 17.0215Z" fill="#288DD5"/>
<path d="M18.0625 21.3965H15.9375C15.3874 21.3965 14.9414 21.8556 14.9414 22.4219C14.9414 22.9882 15.3874 23.4473 15.9375 23.4473H18.0625C18.6126 23.4473 19.0586 22.9882 19.0586 22.4219C19.0586 21.8556 18.6126 21.3965 18.0625 21.3965Z" fill="#288DD5"/>
<path d="M18.0625 25.7715H15.9375C15.3874 25.7715 14.9414 26.2306 14.9414 26.7969C14.9414 27.3632 15.3874 27.8223 15.9375 27.8223H18.0625C18.6126 27.8223 19.0586 27.3632 19.0586 26.7969C19.0586 26.2306 18.6126 25.7715 18.0625 25.7715Z" fill="#288DD5"/>
<path d="M26.5625 17.0215H24.4375C23.8874 17.0215 23.4414 17.4806 23.4414 18.0469C23.4414 18.6132 23.8874 19.0723 24.4375 19.0723H26.5625C27.1126 19.0723 27.5586 18.6132 27.5586 18.0469C27.5586 17.4806 27.1126 17.0215 26.5625 17.0215Z" fill="#288DD5"/>
<path d="M26.5625 21.3965H24.4375C23.8874 21.3965 23.4414 21.8556 23.4414 22.4219C23.4414 22.9882 23.8874 23.4473 24.4375 23.4473H26.5625C27.1126 23.4473 27.5586 22.9882 27.5586 22.4219C27.5586 21.8556 27.1126 21.3965 26.5625 21.3965Z" fill="#288DD5"/>
<path d="M26.5625 25.7715H24.4375C23.8874 25.7715 23.4414 26.2306 23.4414 26.7969C23.4414 27.3632 23.8874 27.8223 24.4375 27.8223H26.5625C27.1126 27.8223 27.5586 27.3632 27.5586 26.7969C27.5586 26.2306 27.1126 25.7715 26.5625 25.7715Z" fill="#288DD5"/>
<path d="M31.0117 4.44336H28.6211V2.73438C28.6211 2.16809 28.1751 1.70898 27.625 1.70898C27.0749 1.70898 26.6289 2.16809 26.6289 2.73438V4.44336H17.9961V2.73438C17.9961 2.16809 17.5501 1.70898 17 1.70898C16.4499 1.70898 16.0039 2.16809 16.0039 2.73438V4.44336H7.37109V2.73438C7.37109 2.16809 6.92511 1.70898 6.375 1.70898C5.82489 1.70898 5.37891 2.16809 5.37891 2.73438V4.44336H2.98828C1.34054 4.44336 0 5.82333 0 7.51953V30.2148C0 31.911 1.34054 33.291 2.98828 33.291H31.0117C32.6595 33.291 34 31.911 34 30.2148C34 29.553 34 8.09546 34 7.51953C34 5.82333 32.6595 4.44336 31.0117 4.44336ZM1.99219 7.51953C1.99219 6.95413 2.43904 6.49414 2.98828 6.49414H5.37891V8.20312C5.37891 8.76941 5.82489 9.22852 6.375 9.22852C6.92511 9.22852 7.37109 8.76941 7.37109 8.20312V6.49414H16.0039V8.20312C16.0039 8.76941 16.4499 9.22852 17 9.22852C17.5501 9.22852 17.9961 8.76941 17.9961 8.20312V6.49414H26.6289V8.20312C26.6289 8.76941 27.0749 9.22852 27.625 9.22852C28.1751 9.22852 28.6211 8.76941 28.6211 8.20312V6.49414H31.0117C31.561 6.49414 32.0078 6.95413 32.0078 7.51953V11.5527H1.99219V7.51953ZM31.0117 31.2402H2.98828C2.43904 31.2402 1.99219 30.7802 1.99219 30.2148V13.6035H32.0078V30.2148C32.0078 30.7802 31.561 31.2402 31.0117 31.2402Z" fill="#288DD5"/>
</svg>
