<svg width="60" height="63" viewBox="0 0 60 63" fill="none" xmlns="http://www.w3.org/2000/svg">
<path d="M59.9919 27.663C59.2075 20.663 56.1506 14.0518 51.3845 9.04714C46.6184 4.04246 40.3221 0.832411 33.6554 0.00836633C33.3227 -0.0324852 32.9899 0.0775187 32.7398 0.310939C32.4898 0.544481 32.3467 0.879169 32.3467 1.23047V11.9461C32.3467 12.6256 32.8714 13.1766 33.5186 13.1766C34.1657 13.1766 34.6904 12.6256 34.6904 11.9461V2.64674C46.4175 4.68267 55.541 14.2629 57.4793 26.5764H34.6904V20.4353C34.6904 19.7558 34.1657 19.2048 33.5186 19.2048C32.8714 19.2048 32.3467 19.7558 32.3467 20.4353V27.8069C32.3467 28.4863 32.8714 29.0373 33.5186 29.0373H58.8282C59.1628 29.0373 59.4816 28.8872 59.7037 28.6245C59.926 28.3619 60.031 28.0121 59.9919 27.663Z" fill="url(#paint0_linear)"/>
<path d="M33.5186 14.8926C32.8714 14.8926 32.3467 15.4436 32.3467 16.123V16.1555C32.3467 16.835 32.8714 17.386 33.5186 17.386C34.1658 17.386 34.6904 16.835 34.6904 16.1555V16.123C34.6904 15.4436 34.1657 14.8926 33.5186 14.8926Z" fill="url(#paint1_linear)"/>
<path d="M27.6061 54.4822C22.8764 54.3621 18.3992 52.6685 14.6584 49.5845C14.1491 49.1645 13.4126 49.2576 13.013 49.7923C12.6132 50.3268 12.7019 51.1003 13.2109 51.52C17.3522 54.9343 22.3104 56.8093 27.5495 56.9423C27.5591 56.9425 27.5687 56.9427 27.5784 56.9427C28.2123 56.9427 28.7338 56.4112 28.7494 55.742C28.7651 55.0627 28.2531 54.4987 27.6061 54.4822Z" fill="url(#paint2_linear)"/>
<path d="M32.092 55.3968C32.0152 54.722 31.4315 54.2404 30.7896 54.3208L30.7646 54.3238C30.1221 54.4043 29.6632 55.0166 29.7398 55.6914C29.8108 56.3167 30.3167 56.7762 30.902 56.7762C30.9484 56.7762 30.9951 56.7732 31.0422 56.7674L31.0672 56.7644C31.7097 56.6839 32.1686 56.0716 32.092 55.3968Z" fill="url(#paint3_linear)"/>
<path d="M55.5469 31.9922C55.5261 31.9922 55.5055 31.9928 55.4851 31.9939H29.5312V4.67578C29.5312 3.99632 29.0065 3.44531 28.3594 3.44531C20.7843 3.44531 13.6627 6.54277 8.30625 12.1669C2.94996 17.7911 0 25.2688 0 33.2227C0 41.1765 2.94996 48.6542 8.30625 54.2784C13.6627 59.9025 20.7843 63 28.3594 63C35.9345 63 43.0561 59.9025 48.4125 54.2784C53.7688 48.6542 56.7187 41.1765 56.7187 33.2227C56.7187 32.5431 56.194 31.9922 55.5469 31.9922ZM28.3594 60.5391C14.0143 60.5391 2.34375 48.2849 2.34375 33.2227C2.34375 18.5731 13.3847 6.57993 27.1875 5.93369V33.2244C27.1875 33.6342 27.3791 33.9962 27.6725 34.2198C27.6724 34.2202 27.6722 34.2206 27.6721 34.2209L48.7107 50.219C43.9403 56.5037 36.5906 60.5391 28.3594 60.5391ZM50.0878 48.2276L31.9755 34.4548H54.3489C54.1335 39.5252 52.5941 44.2395 50.0878 48.2276Z" fill="black"/>
<defs>
<linearGradient id="paint0_linear" x1="32.3467" y1="14.5549" x2="59.9999" y2="14.5549" gradientUnits="userSpaceOnUse">
<stop stop-color="#0EC1CC"/>
<stop offset="0.476099" stop-color="#3A75D9"/>
<stop offset="1" stop-color="#7427E6"/>
</linearGradient>
<linearGradient id="paint1_linear" x1="32.3467" y1="16.1424" x2="34.6904" y2="16.1424" gradientUnits="userSpaceOnUse">
<stop stop-color="#0EC1CC"/>
<stop offset="0.476099" stop-color="#3A75D9"/>
<stop offset="1" stop-color="#7427E6"/>
</linearGradient>
<linearGradient id="paint2_linear" x1="12.7627" y1="53.1416" x2="28.7498" y2="53.1416" gradientUnits="userSpaceOnUse">
<stop stop-color="#0EC1CC"/>
<stop offset="0.476099" stop-color="#3A75D9"/>
<stop offset="1" stop-color="#7427E6"/>
</linearGradient>
<linearGradient id="paint3_linear" x1="29.7314" y1="55.5472" x2="32.1003" y2="55.5472" gradientUnits="userSpaceOnUse">
<stop stop-color="#0EC1CC"/>
<stop offset="0.476099" stop-color="#3A75D9"/>
<stop offset="1" stop-color="#7427E6"/>
</linearGradient>
</defs>
</svg>
