<svg width="60" height="63" viewBox="0 0 60 63" fill="none" xmlns="http://www.w3.org/2000/svg">
<path d="M59.0323 6.09677H56.129V5.08065C56.129 4.81115 56.0271 4.55269 55.8456 4.36213C55.6641 4.17157 55.4179 4.06452 55.1613 4.06452H50.3226V3.04839C50.3226 2.2399 50.0167 1.46454 49.4722 0.892852C48.9278 0.321169 48.1893 1.21132e-07 47.4194 1.21132e-07C46.6494 1.21132e-07 45.9109 0.321169 45.3665 0.892852C44.822 1.46454 44.5161 2.2399 44.5161 3.04839V4.06452H40.6452V3.04839C40.6452 2.2399 40.3393 1.46454 39.7948 0.892852C39.2504 0.321168 38.5119 0 37.7419 0C36.972 0 36.2335 0.321168 35.689 0.892852C35.1446 1.46454 34.8387 2.2399 34.8387 3.04839V4.06452H30.9677V3.04839C30.9677 2.2399 30.6619 1.46454 30.1174 0.892852C29.5729 0.321168 28.8345 0 28.0645 0C27.2945 0 26.5561 0.321168 26.0116 0.892852C25.4672 1.46454 25.1613 2.2399 25.1613 3.04839V4.06452H21.2903V3.04839C21.2903 2.2399 20.9844 1.46454 20.44 0.892852C19.8955 0.321168 19.1571 0 18.3871 0C17.6171 0 16.8787 0.321168 16.3342 0.892852C15.7897 1.46454 15.4839 2.2399 15.4839 3.04839V4.06452H11.6129V3.04839C11.6129 2.2399 11.307 1.46454 10.7626 0.892852C10.2181 0.321168 9.47966 0 8.70968 0C7.93969 0 7.20125 0.321168 6.65679 0.892852C6.11233 1.46454 5.80645 2.2399 5.80645 3.04839V4.06452H0.967742C0.711081 4.06452 0.464932 4.17157 0.283445 4.36213C0.101958 4.55269 0 4.81115 0 5.08065V57.9194C0 58.1888 0.101958 58.4473 0.283445 58.6379C0.464932 58.8284 0.711081 58.9355 0.967742 58.9355H1.93548V61.9839C1.93548 62.2534 2.03744 62.5118 2.21893 62.7024C2.40042 62.8929 2.64656 63 2.90323 63H59.0323C59.2889 63 59.5351 62.8929 59.7166 62.7024C59.898 62.5118 60 62.2534 60 61.9839V7.1129C60 6.84341 59.898 6.58495 59.7166 6.39439C59.5351 6.20383 59.2889 6.09677 59.0323 6.09677ZM1.93548 56.9032V18.2903H54.1935V56.9032H1.93548ZM46.4516 3.04839C46.4516 2.77889 46.5536 2.52044 46.7351 2.32988C46.9165 2.13931 47.1627 2.03226 47.4194 2.03226C47.676 2.03226 47.9222 2.13931 48.1036 2.32988C48.2851 2.52044 48.3871 2.77889 48.3871 3.04839V7.1129C48.3871 7.3824 48.2851 7.64085 48.1036 7.83141C47.9222 8.02198 47.676 8.12903 47.4194 8.12903C47.1627 8.12903 46.9165 8.02198 46.7351 7.83141C46.5536 7.64085 46.4516 7.3824 46.4516 7.1129V3.04839ZM36.7742 3.04839C36.7742 2.77889 36.8761 2.52044 37.0576 2.32988C37.2391 2.13931 37.4853 2.03226 37.7419 2.03226C37.9986 2.03226 38.2447 2.13931 38.4262 2.32988C38.6077 2.52044 38.7097 2.77889 38.7097 3.04839V7.1129C38.7097 7.3824 38.6077 7.64085 38.4262 7.83141C38.2447 8.02198 37.9986 8.12903 37.7419 8.12903C37.4853 8.12903 37.2391 8.02198 37.0576 7.83141C36.8761 7.64085 36.7742 7.3824 36.7742 7.1129V3.04839ZM27.0968 3.04839C27.0968 2.77889 27.1987 2.52044 27.3802 2.32988C27.5617 2.13931 27.8079 2.03226 28.0645 2.03226C28.3212 2.03226 28.5673 2.13931 28.7488 2.32988C28.9303 2.52044 29.0323 2.77889 29.0323 3.04839V7.1129C29.0323 7.3824 28.9303 7.64085 28.7488 7.83141C28.5673 8.02198 28.3212 8.12903 28.0645 8.12903C27.8079 8.12903 27.5617 8.02198 27.3802 7.83141C27.1987 7.64085 27.0968 7.3824 27.0968 7.1129V3.04839ZM17.4194 3.04839C17.4194 2.77889 17.5213 2.52044 17.7028 2.32988C17.8843 2.13931 18.1304 2.03226 18.3871 2.03226C18.6438 2.03226 18.8899 2.13931 19.0714 2.32988C19.2529 2.52044 19.3548 2.77889 19.3548 3.04839V7.1129C19.3548 7.3824 19.2529 7.64085 19.0714 7.83141C18.8899 8.02198 18.6438 8.12903 18.3871 8.12903C18.1304 8.12903 17.8843 8.02198 17.7028 7.83141C17.5213 7.64085 17.4194 7.3824 17.4194 7.1129V3.04839ZM7.74194 3.04839C7.74194 2.77889 7.84389 2.52044 8.02538 2.32988C8.20687 2.13931 8.45302 2.03226 8.70968 2.03226C8.96634 2.03226 9.21249 2.13931 9.39397 2.32988C9.57546 2.52044 9.67742 2.77889 9.67742 3.04839V7.1129C9.67742 7.3824 9.57546 7.64085 9.39397 7.83141C9.21249 8.02198 8.96634 8.12903 8.70968 8.12903C8.45302 8.12903 8.20687 8.02198 8.02538 7.83141C7.84389 7.64085 7.74194 7.3824 7.74194 7.1129V3.04839ZM5.80645 6.09677V7.1129C5.80645 7.92139 6.11233 8.69676 6.65679 9.26844C7.20125 9.84012 7.93969 10.1613 8.70968 10.1613C9.47966 10.1613 10.2181 9.84012 10.7626 9.26844C11.307 8.69676 11.6129 7.92139 11.6129 7.1129V6.09677H15.4839V7.1129C15.4839 7.92139 15.7897 8.69676 16.3342 9.26844C16.8787 9.84012 17.6171 10.1613 18.3871 10.1613C19.1571 10.1613 19.8955 9.84012 20.44 9.26844C20.9844 8.69676 21.2903 7.92139 21.2903 7.1129V6.09677H25.1613V7.1129C25.1613 7.92139 25.4672 8.69676 26.0116 9.26844C26.5561 9.84012 27.2945 10.1613 28.0645 10.1613C28.8345 10.1613 29.5729 9.84012 30.1174 9.26844C30.6619 8.69676 30.9677 7.92139 30.9677 7.1129V6.09677H34.8387V7.1129C34.8387 7.92139 35.1446 8.69676 35.689 9.26844C36.2335 9.84012 36.972 10.1613 37.7419 10.1613C38.5119 10.1613 39.2504 9.84012 39.7948 9.26844C40.3393 8.69676 40.6452 7.92139 40.6452 7.1129V6.09677H44.5161V7.1129C44.5161 7.92139 44.822 8.69676 45.3665 9.26844C45.9109 9.84012 46.6494 10.1613 47.4194 10.1613C48.1893 10.1613 48.9278 9.84012 49.4722 9.26844C50.0167 8.69676 50.3226 7.92139 50.3226 7.1129V6.09677H54.1935V16.2581H1.93548V6.09677H5.80645ZM58.0645 60.9677H3.87097V58.9355H55.1613C55.4179 58.9355 55.6641 58.8284 55.8456 58.6379C56.0271 58.4473 56.129 58.1888 56.129 57.9194V8.12903H58.0645V60.9677Z" fill="black"/>
<path d="M37.9161 26.419H38.7097V24.3867H34.8387C34.5821 24.3867 34.3359 24.4938 34.1544 24.6843C33.9729 24.8749 33.871 25.1334 33.871 25.4028V29.4674H35.8065V27.1912C38.1809 29.1384 39.811 31.9155 40.4004 35.0178C40.9898 38.12 40.4994 41.3414 39.0183 44.0961C37.5372 46.8508 35.1638 48.956 32.3296 50.0288C29.4954 51.1017 26.3887 51.071 23.5742 49.9424L22.8774 51.8222C24.5317 52.4951 26.2905 52.8396 28.0645 52.8383C30.9808 52.8347 33.8285 51.9087 36.2364 50.1812C38.6443 48.4538 40.5008 46.0048 41.564 43.1534C42.6273 40.3021 42.848 37.1806 42.1973 34.1957C41.5466 31.2107 40.0548 28.5008 37.9161 26.419Z" fill="url(#paint0_linear)"/>
<path d="M20.3227 48.0026C17.9483 46.0555 16.3182 43.2783 15.7287 40.176C15.1393 37.0738 15.6298 33.8525 17.1108 31.0977C18.5919 28.343 20.9653 26.2378 23.7995 25.165C26.6337 24.0921 29.7405 24.1228 32.5549 25.2514L33.2517 23.3716C31.5975 22.6987 29.8386 22.3542 28.0646 22.3555C25.1483 22.3592 22.3007 23.2851 19.8928 25.0126C17.4849 26.74 15.6283 29.189 14.5651 32.0404C13.5018 34.8917 13.2812 38.0132 13.9319 40.9981C14.5825 43.9831 16.0744 46.693 18.213 48.7748H17.4194V50.8071H21.2904C21.5471 50.8071 21.7932 50.7 21.9747 50.5095C22.1562 50.3189 22.2581 50.0604 22.2581 49.791V45.7264H20.3227V48.0026Z" fill="url(#paint1_linear)"/>
<path d="M19.355 37.5963C19.355 39.4051 19.8658 41.1732 20.8228 42.6771C21.7799 44.181 23.1401 45.3532 24.7316 46.0454C26.3231 46.7375 28.0743 46.9186 29.7638 46.5658C31.4533 46.2129 33.0053 45.3419 34.2233 44.0629C35.4414 42.784 36.2709 41.1545 36.607 39.3805C36.943 37.6065 36.7706 35.7677 36.1114 34.0966C35.4521 32.4256 34.3358 30.9973 32.9035 29.9924C31.4712 28.9875 29.7873 28.4512 28.0647 28.4512C25.7547 28.4512 23.5394 29.4147 21.906 31.1297C20.2726 32.8448 19.355 35.1709 19.355 37.5963ZM34.7614 36.5802H32.9034V38.6125H34.7614C34.5514 40.1295 33.8802 41.5347 32.8478 42.6186C31.8154 43.7026 30.4772 44.4074 29.0324 44.6279V42.677H27.0969V44.6279C25.6521 44.4074 24.3139 43.7026 23.2815 42.6186C22.2492 41.5347 21.5779 40.1295 21.3679 38.6125H23.2259V36.5802H21.3679C21.5779 35.0632 22.2492 33.658 23.2815 32.574C24.3139 31.4901 25.6521 30.7853 27.0969 30.5647V32.5157H29.0324V30.5647C30.4772 30.7853 31.8154 31.4901 32.8478 32.574C33.8802 33.658 34.5514 35.0632 34.7614 36.5802Z" fill="url(#paint2_linear)"/>
<path d="M29.0322 34.5488H27.0967V37.5972C27.096 37.7309 27.1204 37.8635 27.1685 37.9873C27.2167 38.1111 27.2877 38.2237 27.3773 38.3187L30.2806 41.3671L31.6548 39.9242L29.0322 37.1806V34.5488Z" fill="url(#paint3_linear)"/>
<defs>
<linearGradient id="paint0_linear" x1="22.8774" y1="38.648" x2="42.5632" y2="38.648" gradientUnits="userSpaceOnUse">
<stop stop-color="#0EC1CC"/>
<stop offset="0.476099" stop-color="#3A75D9"/>
<stop offset="1" stop-color="#7427E6"/>
</linearGradient>
<linearGradient id="paint1_linear" x1="13.5659" y1="36.6167" x2="33.2517" y2="36.6167" gradientUnits="userSpaceOnUse">
<stop stop-color="#0EC1CC"/>
<stop offset="0.476099" stop-color="#3A75D9"/>
<stop offset="1" stop-color="#7427E6"/>
</linearGradient>
<linearGradient id="paint2_linear" x1="19.355" y1="37.6191" x2="36.7743" y2="37.6191" gradientUnits="userSpaceOnUse">
<stop stop-color="#0EC1CC"/>
<stop offset="0.476099" stop-color="#3A75D9"/>
<stop offset="1" stop-color="#7427E6"/>
</linearGradient>
<linearGradient id="paint3_linear" x1="27.0967" y1="37.9664" x2="31.6548" y2="37.9664" gradientUnits="userSpaceOnUse">
<stop stop-color="#0EC1CC"/>
<stop offset="0.476099" stop-color="#3A75D9"/>
<stop offset="1" stop-color="#7427E6"/>
</linearGradient>
</defs>
</svg>
