<svg width="21" height="21" viewBox="0 0 21 21" fill="none" xmlns="http://www.w3.org/2000/svg">
<path d="M20.716 0.793216C20.6892 0.668981 20.6271 0.555121 20.5372 0.465333C20.4472 0.375544 20.3333 0.313652 20.209 0.2871C18.8713 0 17.8245 0 16.7814 0C12.5265 0 9.96527 2.25988 8.04885 5.24982H3.88911C3.52408 5.25013 3.16633 5.3519 2.8558 5.54376C2.54527 5.73561 2.2942 6.01001 2.13062 6.33629L0.103459 10.3885C0.0285956 10.5386 -0.00666025 10.7054 0.00103692 10.8729C0.00873408 11.0405 0.0591289 11.2033 0.147439 11.3459C0.235748 11.4885 0.359043 11.6062 0.505621 11.6878C0.6522 11.7694 0.817199 11.8122 0.984959 11.8121H4.78333L4.34893 12.6906C4.22791 12.9358 4.18715 13.2129 4.23243 13.4825C4.27771 13.7522 4.40673 14.0007 4.6012 14.193L6.8068 16.3963C7.44464 17.0336 8.19406 16.7051 8.30974 16.6481L9.1859 16.2142V20.015C9.18578 20.1827 9.22852 20.3476 9.31007 20.4942C9.39162 20.6408 9.50927 20.7641 9.65185 20.8524C9.79444 20.9407 9.95724 20.9912 10.1248 20.9989C10.2924 21.0067 10.4591 20.9715 10.6093 20.8968L14.6578 18.8707C14.9847 18.7074 15.2596 18.4563 15.4516 18.1455C15.6436 17.8346 15.7452 17.4765 15.7449 17.1111V12.9486C18.7274 11.03 20.9994 8.45919 20.9994 4.22447C21.0027 3.17737 21.0027 2.13274 20.716 0.793216ZM14.7058 11.2789C13.1906 12.0369 9.73761 13.7455 7.86427 14.672L6.32605 13.1344C7.25267 11.2605 8.96153 7.80255 9.71833 6.28912C11.6626 3.26186 13.78 1.96868 16.7814 1.96868C17.5197 1.96868 18.1875 1.96868 18.9374 2.06466C19.035 2.83285 19.0325 3.51205 19.0297 4.22406C19.0305 7.20907 17.7351 9.32336 14.7058 11.2789ZM15.0926 4.26548C14.7681 4.26548 14.4509 4.3617 14.1811 4.54197C13.9113 4.72224 13.701 4.97846 13.5768 5.27823C13.4526 5.57801 13.4201 5.90787 13.4834 6.22611C13.5467 6.54435 13.703 6.83667 13.9325 7.06611C14.1619 7.29555 14.4543 7.4518 14.7726 7.5151C15.0908 7.5784 15.4207 7.54591 15.7205 7.42174C16.0204 7.29757 16.2766 7.08729 16.4569 6.8175C16.6372 6.54771 16.7334 6.23053 16.7334 5.90605C16.7334 5.47095 16.5605 5.05366 16.2528 4.74599C15.9451 4.43833 15.5278 4.26548 15.0926 4.26548Z" fill="#60738E"/>
</svg>
