<svg width="64" height="61" viewBox="0 0 64 61" fill="none" xmlns="http://www.w3.org/2000/svg">
<g clip-path="url(#clip0)">
<path d="M21.6652 11.9786C19.7369 12.6723 18.3553 14.4339 18.3553 16.5099C18.3553 17.3093 18.5788 18.0533 18.9398 18.7196C17.4103 19.2796 16.3159 20.6841 16.3159 22.3366C16.3159 23.9896 17.4103 25.3936 18.9398 25.9541C18.5788 26.6203 18.3553 27.3643 18.3553 28.1633C18.3553 30.2397 19.7369 32.0013 21.6652 32.6946C21.5124 33.1014 21.4143 33.5339 21.4143 33.99C21.4143 36.1324 23.2435 37.8745 25.493 37.8745C26.0008 37.8745 26.4823 37.7744 26.9309 37.6132C27.5916 38.912 28.9772 39.8167 30.5914 39.8167C32.8408 39.8167 34.6701 38.0746 34.6701 35.9323V8.74092C34.6701 6.59905 32.8408 4.85645 30.5914 4.85645C28.9772 4.85645 27.5916 5.76165 26.9309 7.05996C26.4823 6.89874 26.0008 6.79868 25.493 6.79868C23.2435 6.79868 21.4143 8.54129 21.4143 10.6832C21.4143 11.1398 21.5124 11.5718 21.6652 11.9786ZM25.493 8.74092C26.6177 8.74092 27.5323 9.61199 27.5323 10.6832H29.5717C29.5717 9.74998 29.2097 8.90309 28.6317 8.23308C28.8682 7.4099 29.6523 6.79868 30.5914 6.79868C31.7161 6.79868 32.6307 7.66975 32.6307 8.74092V35.9323C32.6307 37.0034 31.7161 37.8745 30.5914 37.8745C29.6523 37.8745 28.8682 37.2638 28.6317 36.4401C29.2097 35.7701 29.5717 34.9237 29.5717 33.99H27.5323C27.5323 35.0612 26.6177 35.9323 25.493 35.9323C24.3683 35.9323 23.4536 35.0612 23.4536 33.99C23.4536 32.9189 24.3683 32.0478 25.493 32.0478V30.1055C24.4997 30.1055 23.6005 30.4593 22.893 31.0226C21.4735 30.7708 20.3946 29.5873 20.3946 28.1633C20.3946 26.5573 21.7673 25.2499 23.4536 25.2499C25.1405 25.2499 26.5127 26.5573 26.5127 28.1633H28.552C28.552 25.4861 26.2652 23.3077 23.4536 23.3077C22.3015 23.3077 21.249 23.6875 20.3946 24.3044V24.2788C19.2699 24.2788 18.3553 23.4078 18.3553 22.3366C18.3553 21.2654 19.2699 20.3944 20.3946 20.3944V20.3692C21.249 20.9861 22.3015 21.3655 23.4536 21.3655C26.2652 21.3655 28.552 19.1876 28.552 16.5099H26.5127C26.5127 18.1164 25.1405 19.4232 23.4536 19.4232C21.7673 19.4232 20.3946 18.1164 20.3946 16.5099C20.3946 15.0864 21.4735 13.9028 22.893 13.651C23.6005 14.2144 24.4997 14.5676 25.493 14.5676V12.6254C24.3683 12.6254 23.4536 11.7543 23.4536 10.6832C23.4536 9.61199 24.3683 8.74092 25.493 8.74092Z" fill="#7427E6"/>
<path d="M45.8866 6.79868C45.3787 6.79868 44.8977 6.89874 44.4491 7.05996C43.788 5.76165 42.4023 4.85645 40.7882 4.85645C38.5387 4.85645 36.7095 6.59905 36.7095 8.74092V35.9323C36.7095 38.0746 38.5387 39.8167 40.7882 39.8167C42.4023 39.8167 43.788 38.912 44.4491 37.6132C44.8977 37.7744 45.3787 37.8745 45.8866 37.8745C48.136 37.8745 49.9653 36.1324 49.9653 33.99C49.9653 33.5339 49.8677 33.1014 49.7143 32.6946C51.6426 32.0013 53.0243 30.2397 53.0243 28.1633C53.0243 27.3643 52.8012 26.6203 52.4403 25.9541C53.9698 25.3936 55.0636 23.9896 55.0636 22.3366C55.0636 20.6841 53.9698 19.2796 52.4403 18.7196C52.8012 18.0533 53.0243 17.3093 53.0243 16.5099C53.0243 14.4339 51.6426 12.6723 49.7143 11.9786C49.8677 11.5718 49.9653 11.1398 49.9653 10.6832C49.9653 8.54129 48.136 6.79868 45.8866 6.79868ZM50.9849 16.5099C50.9849 18.1164 49.6127 19.4232 47.9259 19.4232C46.2396 19.4232 44.8669 18.1164 44.8669 16.5099H42.8275C42.8275 19.1876 45.1148 21.3655 47.9259 21.3655C49.078 21.3655 50.1306 20.9861 50.9849 20.3692V20.3944C52.1097 20.3944 53.0243 21.2654 53.0243 22.3366C53.0243 23.4078 52.1097 24.2788 50.9849 24.2788V24.3044C50.1306 23.6875 49.078 23.3077 47.9259 23.3077C45.1148 23.3077 42.8275 25.4861 42.8275 28.1633H44.8669C44.8669 26.5573 46.2396 25.2499 47.9259 25.2499C49.6127 25.2499 50.9849 26.5573 50.9849 28.1633C50.9849 29.5873 49.906 30.7708 48.487 31.0226C47.779 30.4593 46.8798 30.1055 45.8866 30.1055V32.0478C47.0113 32.0478 47.9259 32.9189 47.9259 33.99C47.9259 35.0612 47.0113 35.9323 45.8866 35.9323C44.7618 35.9323 43.8472 35.0612 43.8472 33.99H41.8078C41.8078 34.9237 42.1698 35.7701 42.7479 36.4401C42.5114 37.2638 41.7272 37.8745 40.7882 37.8745C39.6634 37.8745 38.7488 37.0034 38.7488 35.9323V8.74092C38.7488 7.66975 39.6634 6.79868 40.7882 6.79868C41.7272 6.79868 42.5114 7.4099 42.7479 8.23308C42.1698 8.90309 41.8078 9.74998 41.8078 10.6832H43.8472C43.8472 9.61199 44.7618 8.74092 45.8866 8.74092C47.0113 8.74092 47.9259 9.61199 47.9259 10.6832C47.9259 11.7543 47.0113 12.6254 45.8866 12.6254V14.5676C46.8798 14.5676 47.779 14.2144 48.487 13.651C49.906 13.9028 50.9849 15.0864 50.9849 16.5099Z" fill="#7427E6"/>
<path d="M51.7465 6.05728C46.9817 1.79204 40.7411 -0.34651 34.1919 0.0461104L34.3184 1.98408C40.3025 1.62987 45.9983 3.57875 50.3504 7.47223C54.7044 11.369 57.1027 16.649 57.1027 22.3368C57.1027 29.1911 53.5155 35.547 47.5064 39.3395C45.4337 40.6482 43.8654 42.515 42.899 44.6726H28.4378C27.458 42.4994 25.8836 40.6193 23.8075 39.2987C17.6147 35.3568 14.0563 28.7738 14.2878 21.6862L12.2495 21.626C11.9956 29.3874 15.8935 36.5978 22.6748 40.9128C24.1724 41.8664 25.3683 43.1647 26.2018 44.6726H23.4535V46.6148H27.0154C27.213 47.244 27.3713 47.8889 27.4515 48.557H25.4928V50.4993H27.5322V53.4126C27.5322 53.9499 27.9892 54.3837 28.5518 54.3837H29.5715C29.5715 57.5973 32.3154 60.2105 35.6896 60.2105C39.0637 60.2105 41.8076 57.5973 41.8076 54.3837H42.8273C43.3904 54.3837 43.847 53.9499 43.847 53.4126V50.4993H45.8863V48.557H43.9187C43.9909 47.8899 44.1347 47.2431 44.3284 46.6148H47.9257V44.6726H45.133C45.9545 43.1813 47.1435 41.8991 48.6337 40.9593C55.2133 36.8035 59.1421 29.8426 59.1421 22.3368C59.1421 16.1976 56.446 10.2633 51.7465 6.05728ZM35.6896 58.2682C33.4401 58.2682 31.6109 56.5261 31.6109 54.3837H39.7683C39.7683 56.5261 37.939 58.2682 35.6896 58.2682ZM41.8076 52.4415H29.5715V50.4993H41.8076V52.4415ZM41.8803 48.557H29.4899C29.4216 47.896 29.3116 47.2464 29.1443 46.6148H42.1975C42.0351 47.2454 41.941 47.8979 41.8803 48.557Z" fill="#7427E6"/>
<path d="M11.2174 6.79881C13.4669 6.79881 15.2961 8.54142 15.2961 10.6833C15.2961 11.2205 15.7532 11.6544 16.3158 11.6544C16.8789 11.6544 17.3355 11.2205 17.3355 10.6833C17.3355 8.54142 19.1647 6.79881 21.4142 6.79881C21.9773 6.79881 22.4339 6.36494 22.4339 5.82769C22.4339 5.29092 21.9773 4.85657 21.4142 4.85657C19.1647 4.85657 17.3355 3.11444 17.3355 0.972096C17.3355 0.435325 16.8789 0.000976562 16.3158 0.000976562C15.7532 0.000976562 15.2961 0.435325 15.2961 0.972096C15.2961 3.11444 13.4669 4.85657 11.2174 4.85657C10.6548 4.85657 10.1978 5.29092 10.1978 5.82769C10.1978 6.36494 10.6548 6.79881 11.2174 6.79881ZM16.3158 4.1894C16.7689 4.83808 17.3549 5.39666 18.036 5.82769C17.3549 6.2592 16.7689 6.81731 16.3158 7.46598C15.8632 6.81731 15.2767 6.2592 14.5956 5.82769C15.2767 5.39666 15.8632 4.83808 16.3158 4.1894Z" fill="#7427E6"/>
<path d="M15.296 16.51C15.8591 16.51 16.3157 16.0761 16.3157 15.5389C16.3157 15.0021 15.8591 14.5678 15.296 14.5678C13.0466 14.5678 11.2173 12.8256 11.2173 10.6833C11.2173 10.1465 10.7608 9.71216 10.1976 9.71216C9.63503 9.71216 9.17797 10.1465 9.17797 10.6833C9.17797 12.8256 7.34872 14.5678 5.09926 14.5678C4.53665 14.5678 4.07959 15.0021 4.07959 15.5389C4.07959 16.0761 4.53665 16.51 5.09926 16.51C7.34872 16.51 9.17797 18.2526 9.17797 20.3945C9.17797 20.9317 9.63503 21.3656 10.1976 21.3656C10.7608 21.3656 11.2173 20.9317 11.2173 20.3945C11.2173 18.2526 13.0466 16.51 15.296 16.51ZM10.1976 17.1772C9.74506 16.5285 9.15855 15.9704 8.47744 15.5389C9.15855 15.1078 9.74406 14.5493 10.1976 13.9006C10.6507 14.5493 11.2367 15.1069 11.9178 15.5389C11.2367 15.9704 10.6507 16.5285 10.1976 17.1772Z" fill="#7427E6"/>
</g>
<defs>
<clipPath id="clip0">
<rect width="63.2211" height="60.2105" fill="white"/>
</clipPath>
</defs>
</svg>
