<svg width="35" height="35" viewBox="0 0 35 35" fill="none" xmlns="http://www.w3.org/2000/svg">
<g clip-path="url(#clip0)">
<path d="M29.8957 35H5.104C3.89796 35 2.9165 34.0185 2.9165 32.8125V18.2292C2.9165 17.8267 3.24317 17.5 3.64567 17.5H31.354C31.7565 17.5 32.0832 17.8267 32.0832 18.2292V32.8125C32.0832 34.0185 31.1017 35 29.8957 35ZM4.37484 18.9583V32.8125C4.37484 33.2135 4.70296 33.5417 5.104 33.5417H29.8957C30.2967 33.5417 30.6248 33.2135 30.6248 32.8125V18.9583H4.37484Z" fill="#288DD5"/>
<path d="M32.8125 18.9585H2.1875C0.981458 18.9585 0 17.977 0 16.771V12.396C0 11.19 0.981458 10.2085 2.1875 10.2085H32.8125C34.0185 10.2085 35 11.19 35 12.396V16.771C35 17.977 34.0185 18.9585 32.8125 18.9585ZM2.1875 11.6668C1.78646 11.6668 1.45833 11.995 1.45833 12.396V16.771C1.45833 17.172 1.78646 17.5002 2.1875 17.5002H32.8125C33.2135 17.5002 33.5417 17.172 33.5417 16.771V12.396C33.5417 11.995 33.2135 11.6668 32.8125 11.6668H2.1875Z" fill="#288DD5"/>
<path d="M17.5 11.6667C17.2885 11.6667 17.0873 11.5763 16.9487 11.4144C16.8102 11.2554 16.7475 11.044 16.7781 10.8354C16.7942 10.726 18.4246 0 26.9792 0C30.7475 0 32.0848 2.03583 32.0848 3.77854C32.0848 7.05396 27.5596 11.6667 17.5 11.6667ZM26.9792 1.45833C20.9825 1.45833 18.9379 7.85312 18.391 10.1938C26.3812 9.94583 30.6265 6.37875 30.6265 3.77854C30.6265 3.13104 30.3538 2.59729 29.8185 2.19625C29.1769 1.71354 28.194 1.45833 26.9792 1.45833Z" fill="#288DD5"/>
<path d="M17.5013 11.6667C7.44171 11.6667 2.9165 7.05396 2.9165 3.77854C2.9165 2.67896 3.41088 1.70187 4.3063 1.02958C5.20317 0.355833 6.48796 0 8.02213 0C16.5767 0 18.2071 10.726 18.2232 10.8354C18.2538 11.0454 18.1911 11.2554 18.0526 11.4144C17.914 11.5763 17.7128 11.6667 17.5013 11.6667ZM8.02213 1.45833C5.77192 1.45833 4.37484 2.34646 4.37484 3.77854C4.37484 6.38021 8.62297 9.94729 16.6176 10.1952C16.0882 7.84 14.0946 1.45833 8.02213 1.45833Z" fill="#288DD5"/>
<path d="M17.5002 35.0002C17.0977 35.0002 16.771 34.6735 16.771 34.271V10.9377C16.771 10.5352 17.0977 10.2085 17.5002 10.2085C17.9027 10.2085 18.2293 10.5352 18.2293 10.9377V34.271C18.2293 34.6735 17.9027 35.0002 17.5002 35.0002Z" fill="#288DD5"/>
</g>
<defs>
<clipPath id="clip0">
<rect width="35" height="35" fill="white"/>
</clipPath>
</defs>
</svg>
