<svg width="30" height="26" viewBox="0 0 30 26" fill="none" xmlns="http://www.w3.org/2000/svg">
<path d="M22.5745 5.22569L10.2364 12.7455C9.53824 13.172 9.20783 14.0144 9.43277 14.7936L10.7668 19.4322C10.8808 19.8277 11.2365 20.0906 11.6457 20.0906C11.6685 20.0906 11.6915 20.0898 11.7146 20.0881C12.152 20.0567 12.4982 19.7343 12.5564 19.3045L12.9033 16.761C12.95 16.4188 13.1167 16.1005 13.3721 15.8652L23.5536 6.49957C23.8613 6.21725 23.902 5.75496 23.6484 5.42428C23.3945 5.09331 22.933 5.00773 22.5745 5.22569ZM12.558 14.9992C12.1005 15.4206 11.8024 15.9901 11.7187 16.6027L11.5505 17.8365L10.5821 14.4693C10.5035 14.1966 10.6194 13.9016 10.8637 13.7524L19.9022 8.24358L12.558 14.9992Z" fill="#7427E6"/>
<path d="M29.5119 0.323966C29.1264 0.000653359 28.5945 -0.0883504 28.1234 0.0917444L0.88361 10.4905C0.344137 10.6964 -0.00273763 11.1991 1.62783e-05 11.7711C0.00282878 12.3436 0.354801 12.8435 0.897438 13.0447L7.26013 15.3946L9.74211 23.2934C9.8784 23.7276 10.2224 24.065 10.6622 24.1959C11.1018 24.3267 11.5765 24.2332 11.9313 23.946L15.631 20.9615C15.8086 20.8181 16.0623 20.8111 16.2478 20.9444L22.9207 25.7384C23.1607 25.9111 23.444 26 23.7306 26C23.8985 26 24.0675 25.9695 24.2296 25.9075C24.6683 25.7396 24.9873 25.3675 25.0828 24.9123L29.9712 1.64325C30.0738 1.15329 29.8979 0.6478 29.5119 0.323966ZM28.801 1.40291L23.9126 24.6719C23.8949 24.756 23.8337 24.7909 23.7988 24.8043C23.7636 24.8178 23.6942 24.8327 23.6232 24.7815L16.9501 19.9872C16.6518 19.7729 16.3011 19.6665 15.951 19.6665C15.5691 19.6665 15.1877 19.7932 14.876 20.0445L11.1755 23.0298C11.1097 23.0831 11.0413 23.0736 11.0065 23.0632C10.9715 23.0528 10.9089 23.0232 10.8835 22.9423L8.31447 14.7663C8.25957 14.5916 8.12597 14.4519 7.95277 14.3879L1.31615 11.9368C1.21677 11.9 1.19562 11.8232 1.19533 11.7653C1.19504 11.7079 1.21543 11.6316 1.31386 11.594L28.5537 1.19527C28.5538 1.19522 28.554 1.19516 28.5542 1.1951C28.6426 1.1613 28.7081 1.20015 28.7393 1.22624C28.7705 1.25262 28.8203 1.3106 28.801 1.40291Z" fill="#7427E6"/>
<path d="M25.048 12.7763C24.7254 12.7069 24.4072 12.9096 24.3372 13.2288L24.2464 13.6428C24.1764 13.962 24.3811 14.2769 24.7037 14.3462C24.7464 14.3553 24.789 14.3597 24.831 14.3597C25.1061 14.3597 25.3537 14.1706 25.4145 13.8937L25.5053 13.4797C25.5753 13.1605 25.3705 12.8456 25.048 12.7763Z" fill="#7427E6"/>
<path d="M24.4504 15.5009C24.1275 15.4316 23.8096 15.6342 23.7396 15.9534L22.365 22.2185C22.295 22.5377 22.4998 22.8526 22.8223 22.9219C22.865 22.931 22.9076 22.9355 22.9496 22.9355C23.2248 22.9355 23.4723 22.7463 23.5331 22.4694L24.9077 16.2043C24.9777 15.8851 24.7729 15.5702 24.4504 15.5009Z" fill="#7427E6"/>
</svg>
