<svg width="30" height="30" viewBox="0 0 30 30" fill="none" xmlns="http://www.w3.org/2000/svg">
<path d="M15 0C6.71575 0 0 6.71575 0 15C0 23.2843 6.71575 30 15 30C23.2843 30 30 23.2843 30 15C29.9906 6.71963 23.2804 0.009375 15 0ZM15 29C7.268 29 1 22.732 1 15C1 7.268 7.268 1 15 1C22.732 1 29 7.268 29 15C28.9912 22.7283 22.7283 28.9912 15 29Z" fill="#7427E6"/>
<path d="M15 2.5C8.09644 2.5 2.5 8.09644 2.5 15C2.5 21.9036 8.09644 27.5 15 27.5C21.9036 27.5 27.5 21.9036 27.5 15C27.4923 8.09962 21.9004 2.50769 15 2.5ZM15 26.5C8.64875 26.5 3.5 21.3512 3.5 15C3.5 8.64875 8.64875 3.5 15 3.5C21.3512 3.5 26.5 8.64875 26.5 15C26.4928 21.3483 21.3483 26.4928 15 26.5Z" fill="#7427E6"/>
<path d="M15.5 5H14.5V6H15.5V5Z" fill="#7427E6"/>
<path d="M15.5 23.9995H14.5V24.9995H15.5V23.9995Z" fill="#7427E6"/>
<path d="M10.4326 6.09078L9.56641 6.58936L10.0675 7.45409L10.9338 6.95551L10.4326 6.09078Z" fill="#7427E6"/>
<path d="M19.9302 22.542L19.064 23.0405L19.5651 23.9053L20.4313 23.4067L19.9302 22.542Z" fill="#7427E6"/>
<path d="M6.59064 9.56735L6.08936 10.4326L6.9561 10.9313L7.45739 10.0661L6.59064 9.56735Z" fill="#7427E6"/>
<path d="M23.0433 19.0698L22.542 19.9351L23.4087 20.4338L23.91 19.5685L23.0433 19.0698Z" fill="#7427E6"/>
<path d="M6 14.4995H5V15.4995H6V14.4995Z" fill="#7427E6"/>
<path d="M25 14.4995H24V15.4995H25V14.4995Z" fill="#7427E6"/>
<path d="M6.95645 19.0673L6.0896 19.5659L6.59079 20.4313L7.45764 19.9327L6.95645 19.0673Z" fill="#7427E6"/>
<path d="M23.4087 9.56817L22.542 10.0669L23.0433 10.9322L23.91 10.4334L23.4087 9.56817Z" fill="#7427E6"/>
<path d="M10.0651 22.5449L9.56396 23.4097L10.4302 23.9083L10.9313 23.0435L10.0651 22.5449Z" fill="#7427E6"/>
<path d="M19.5675 6.09229L19.0664 6.95703L19.9326 7.45561L20.4337 6.59087L19.5675 6.09229Z" fill="#7427E6"/>
<path d="M14.4999 7V14.717L9.74243 17.5715L10.2574 18.4285L15.2574 15.4285C15.4079 15.3381 15.4999 15.1755 15.4999 15V7H14.4999Z" fill="#7427E6"/>
</svg>
