<svg width="35" height="35" viewBox="0 0 35 35" fill="none" xmlns="http://www.w3.org/2000/svg">
<g clip-path="url(#clip0)">
<path d="M11.6667 0C6.83427 0 2.91675 3.91752 2.91675 8.75V15.1667C2.9193 17.4207 4.74601 19.2474 7.00008 19.25H7.58341V18.0833H7.00008C5.39008 18.0814 4.08531 16.7767 4.08341 15.1667V8.75C4.08341 4.56181 7.47856 1.16667 11.6667 1.16667C15.8549 1.16667 19.2501 4.56181 19.2501 8.75V15.1667C19.2482 16.7767 17.9434 18.0814 16.3334 18.0833H15.7501V19.25H16.3334C18.5875 19.2474 20.4142 17.4207 20.4167 15.1667V8.75C20.4167 3.91752 16.4992 0 11.6667 0Z" fill="#288DD5"/>
<path d="M4.80738 27.4916L5.2338 26.8202L4.24855 26.1948L3.82213 26.8668C2.53245 28.8992 2.62819 31.516 4.06305 33.4486V34.9997H5.22971V33.2497C5.22979 33.1172 5.18472 32.9885 5.10196 32.8851C3.8618 31.3347 3.74345 29.1678 4.80738 27.4916Z" fill="#288DD5"/>
<path d="M32.0835 0H24.5002C22.8902 0.00189583 21.5854 1.30667 21.5835 2.91667V8.75C21.5854 10.36 22.8902 11.6648 24.5002 11.6667H25.6668V14C25.6668 14.2359 25.8088 14.4487 26.0267 14.539C26.0975 14.5685 26.1735 14.5836 26.2502 14.5833C26.4049 14.5833 26.5532 14.5218 26.6626 14.4124L29.4083 11.6667H32.0835C33.6935 11.6648 34.9983 10.36 35.0002 8.75V2.91667C34.9983 1.30667 33.6935 0.00189583 32.0835 0ZM33.8335 8.75C33.8335 9.71651 33.05 10.5 32.0835 10.5H29.1668C29.0121 10.5 28.8638 10.5615 28.7544 10.6709L26.8335 12.5918V11.0833C26.8335 10.7612 26.5723 10.5 26.2502 10.5H24.5002C23.5337 10.5 22.7502 9.71651 22.7502 8.75V2.91667C22.7502 1.95016 23.5337 1.16667 24.5002 1.16667H32.0835C33.05 1.16667 33.8335 1.95016 33.8335 2.91667V8.75Z" fill="#288DD5"/>
<path d="M28.5833 2.9165H24.5V4.08317H28.5833V2.9165Z" fill="#288DD5"/>
<path d="M32.0833 2.9165H29.75V4.08317H32.0833V2.9165Z" fill="#288DD5"/>
<path d="M32.0833 5.25H24.5V6.41667H32.0833V5.25Z" fill="#288DD5"/>
<path d="M28.5833 7.5835H24.5V8.75016H28.5833V7.5835Z" fill="#288DD5"/>
<path d="M19.5113 26.8668L19.0849 26.1948L18.0996 26.8202L18.526 27.4922C19.59 29.1681 19.4717 31.3349 18.2314 32.8851C18.1487 32.9885 18.1036 33.1172 18.1037 33.2497V34.9997H19.2704V33.4486C20.7052 31.516 20.801 28.8992 19.5113 26.8668Z" fill="#288DD5"/>
<path d="M34.4167 19.8331H29.1667C26.978 19.8357 25.1806 21.5634 25.0915 23.7502L23.3333 26.9154V24.4998C23.3308 22.2457 21.5041 20.419 19.25 20.4164H17.1179L17.1022 20.4042L17.0917 20.4164H15.75C15.1056 20.4164 14.5833 19.8941 14.5833 19.2498V17.8772C16.3858 16.8365 17.4972 14.9144 17.5 12.8331V8.16645C17.4991 7.19994 17.2586 6.24875 16.8 5.39796C16.6531 5.12729 16.321 5.0174 16.0417 5.14712L6.16817 9.79279C5.96371 9.88904 5.83326 10.0947 5.83333 10.3207V12.8331C5.8361 14.9144 6.94757 16.8365 8.75 17.8772V19.2498C8.75 19.8941 8.2277 20.4164 7.58333 20.4164H4.08333C1.82926 20.419 0.00255208 22.2457 0 24.4998V34.9998H1.16667V24.4998C1.16856 22.8898 2.47333 21.585 4.08333 21.5831H5.9395L11.1924 28.9226C11.3003 29.0735 11.4736 29.164 11.6591 29.1664H11.6667C11.8503 29.1664 12.0232 29.08 12.1333 28.9331L17.675 21.5831H19.25C20.86 21.585 22.1648 22.8898 22.1667 24.4998V29.1664C22.167 29.4886 22.4284 29.7496 22.7505 29.7493C22.9621 29.7491 23.157 29.6344 23.2598 29.4494L26.0097 24.4998H29.3539L23.6664 34.9998H24.9935L30.6833 24.4998H30.9167C33.1707 24.4972 34.9974 22.6705 35 20.4164C35 20.0943 34.7388 19.8331 34.4167 19.8331ZM7 12.8331V10.6911L16.0072 6.45262C16.2227 6.99833 16.3333 7.57977 16.3333 8.16645V12.8331C16.3333 15.4104 14.244 17.4998 11.6667 17.4998C9.08935 17.4998 7 15.4104 7 12.8331ZM11.6789 27.5984L9.87875 25.0831H13.5747L11.6789 27.5984ZM14.4573 23.9164H9.04167L7.37158 21.5831H7.58333C8.87199 21.5831 9.91667 20.5384 9.91667 19.2498V18.3975C11.0558 18.7561 12.2776 18.7561 13.4167 18.3975V19.2498C13.4167 20.5384 14.4613 21.5831 15.75 21.5831H16.2167L14.4573 23.9164ZM30.9167 23.3331H26.3083C26.5872 21.9759 27.7811 21.0013 29.1667 20.9998H33.775C33.4961 22.357 32.3022 23.3316 30.9167 23.3331Z" fill="#288DD5"/>
</g>
<defs>
<clipPath id="clip0">
<rect width="35" height="35" fill="white"/>
</clipPath>
</defs>
</svg>
