<svg width="21" height="21" viewBox="0 0 21 21" fill="none" xmlns="http://www.w3.org/2000/svg">
<path d="M6.9375 11.8125H5.0625C4.75313 11.8125 4.5 11.591 4.5 11.3203V9.67969C4.5 9.40898 4.75313 9.1875 5.0625 9.1875H6.9375C7.24687 9.1875 7.5 9.40898 7.5 9.67969V11.3203C7.5 11.591 7.24687 11.8125 6.9375 11.8125ZM12 11.3203V9.67969C12 9.40898 11.7469 9.1875 11.4375 9.1875H9.5625C9.25313 9.1875 9 9.40898 9 9.67969V11.3203C9 11.591 9.25313 11.8125 9.5625 11.8125H11.4375C11.7469 11.8125 12 11.591 12 11.3203ZM16.5 11.3203V9.67969C16.5 9.40898 16.2469 9.1875 15.9375 9.1875H14.0625C13.7531 9.1875 13.5 9.40898 13.5 9.67969V11.3203C13.5 11.591 13.7531 11.8125 14.0625 11.8125H15.9375C16.2469 11.8125 16.5 11.591 16.5 11.3203ZM12 15.2578V13.6172C12 13.3465 11.7469 13.125 11.4375 13.125H9.5625C9.25313 13.125 9 13.3465 9 13.6172V15.2578C9 15.5285 9.25313 15.75 9.5625 15.75H11.4375C11.7469 15.75 12 15.5285 12 15.2578ZM7.5 15.2578V13.6172C7.5 13.3465 7.24687 13.125 6.9375 13.125H5.0625C4.75313 13.125 4.5 13.3465 4.5 13.6172V15.2578C4.5 15.5285 4.75313 15.75 5.0625 15.75H6.9375C7.24687 15.75 7.5 15.5285 7.5 15.2578ZM16.5 15.2578V13.6172C16.5 13.3465 16.2469 13.125 15.9375 13.125H14.0625C13.7531 13.125 13.5 13.3465 13.5 13.6172V15.2578C13.5 15.5285 13.7531 15.75 14.0625 15.75H15.9375C16.2469 15.75 16.5 15.5285 16.5 15.2578ZM21 4.59375V19.0312C21 20.1182 19.9922 21 18.75 21H2.25C1.00781 21 0 20.1182 0 19.0312V4.59375C0 3.50684 1.00781 2.625 2.25 2.625H4.5V0.492188C4.5 0.221484 4.75313 0 5.0625 0H6.9375C7.24687 0 7.5 0.221484 7.5 0.492188V2.625H13.5V0.492188C13.5 0.221484 13.7531 0 14.0625 0H15.9375C16.2469 0 16.5 0.221484 16.5 0.492188V2.625H18.75C19.9922 2.625 21 3.50684 21 4.59375ZM18.75 18.7852V6.5625H2.25V18.7852C2.25 18.9205 2.37656 19.0312 2.53125 19.0312H18.4688C18.6234 19.0312 18.75 18.9205 18.75 18.7852Z" fill="#60738E"/>
</svg>
