<svg width="65" height="65" viewBox="0 0 65 65" fill="none" xmlns="http://www.w3.org/2000/svg">
<path d="M13.325 13.8149C10.3788 6.03381 15.7802 2.06223 18.8492 1.04907C20.3223 8.34381 15.7802 12.5991 13.325 13.8149ZM13.325 13.8149C10.0514 20.7043 6.66511 37.2473 17.4679 45.5147M9.93662 27.1885C11.1642 24.3517 10.8698 15.0307 6.25384 13.207C3.50426 17.4622 3.0621 22.8117 9.93662 27.1885ZM9.93662 27.1885C10.3458 24.1491 12.8828 17.9485 19.7574 17.4622C19.962 20.7043 18.2843 27.1885 9.93662 27.1885ZM17.4679 45.5147C16.6495 43.8936 13.325 40.0917 4.5782 42.4752C6.41959 45.5147 11.5755 50.3778 17.4679 45.5147ZM17.4679 45.5147C22.3783 47.9462 32.5982 53.9359 36.0355 61.2306M27.4423 51.6535C25.6009 49.8299 20.5678 47.5199 15.1664 52.8693C18.0308 54.8957 24.4961 57.4893 27.4423 51.6535ZM27.4423 51.6535C28.7589 49.0193 29.4973 43.0214 21.9182 40.1035C20.6906 42.7378 19.7574 46.2518 27.4423 51.6535ZM10.8698 36.9149C10.6652 33.8754 8.41463 27.4317 1.04907 25.9728C1.25367 30.0254 3.50426 37.8875 10.8698 36.9149ZM15.1664 43.1017C13.325 41.2781 10.9926 36.2933 16.394 30.9439C18.44 34.3886 21.0588 41.6428 15.1664 43.1017Z" stroke="#7427E6"/>
<rect x="7.80078" y="7.12793" width="1.22759" height="1.21579" fill="#7427E6"/>
<rect x="20.0769" y="13.207" width="1.22759" height="1.21579" fill="#7427E6"/>
<rect x="17.6218" y="27.7964" width="1.22759" height="1.21579" fill="#7427E6"/>
<rect x="20.0769" y="37.5229" width="1.22759" height="1.21579" fill="#7427E6"/>
<rect x="32.353" y="49.6807" width="1.22759" height="1.21579" fill="#7427E6"/>
<rect x="36.0356" y="63.0544" width="1.22759" height="1.21579" fill="#7427E6"/>
<rect x="2.89062" y="38.7385" width="1.22759" height="1.21579" fill="#7427E6"/>
<rect x="12.7112" y="49.6807" width="1.22759" height="1.21579" fill="#7427E6"/>
<rect x="1.66309" y="21.7175" width="1.22759" height="1.21579" fill="#7427E6"/>
<path d="M50.9819 13.8149C53.8765 6.03381 48.5698 2.06223 45.5547 1.04907C44.1074 8.34381 48.5698 12.5991 50.9819 13.8149ZM50.9819 13.8149C54.1981 20.7043 57.525 37.2473 46.9117 45.5147M54.3109 27.1885C53.1048 24.3517 53.394 15.0307 57.929 13.207C60.6304 17.4622 61.0648 22.8117 54.3109 27.1885ZM54.3109 27.1885C53.9088 24.1491 51.4163 17.9485 44.6624 17.4622C44.4614 20.7043 46.1097 27.1885 54.3109 27.1885ZM46.9117 45.5147C47.7157 43.8936 50.9819 40.0917 59.5753 42.4752C57.7662 45.5147 52.7007 50.3778 46.9117 45.5147ZM46.9117 45.5147C42.0874 47.9462 32.0468 53.9359 28.6699 61.2306M37.1123 51.6535C38.9214 49.8299 43.8662 47.5199 49.1728 52.8693C46.3587 54.8957 40.0068 57.4893 37.1123 51.6535ZM37.1123 51.6535C35.8188 49.0193 35.0934 43.0214 42.5395 40.1035C43.7456 42.7378 44.6624 46.2518 37.1123 51.6535ZM53.394 36.9149C53.595 33.8754 55.8061 27.4317 63.0425 25.9728C62.8415 30.0254 60.6304 37.8875 53.394 36.9149ZM49.1728 43.1017C50.9819 41.2781 53.2734 36.2933 47.9668 30.9439C45.9567 34.3886 43.3838 41.6428 49.1728 43.1017Z" stroke="#7427E6"/>
<rect width="1.22759" height="1.21579" transform="matrix(-1 0 0 1 58.1323 7.12793)" fill="#7427E6"/>
<rect width="1.22759" height="1.21579" transform="matrix(-1 0 0 1 47.084 13.207)" fill="#7427E6"/>
<rect width="1.22759" height="1.21579" transform="matrix(-1 0 0 1 49.5391 27.7964)" fill="#7427E6"/>
<rect width="1.22759" height="1.21579" transform="matrix(-1 0 0 1 44.6287 37.5229)" fill="#7427E6"/>
<rect width="1.22759" height="1.21579" transform="matrix(-1 0 0 1 28.6702 63.0544)" fill="#7427E6"/>
<rect width="1.22759" height="1.21579" transform="matrix(-1 0 0 1 63.0425 38.7385)" fill="#7427E6"/>
<rect width="1.22759" height="1.21579" transform="matrix(-1 0 0 1 53.2217 49.6807)" fill="#7427E6"/>
<rect width="1.22759" height="1.21579" transform="matrix(-1 0 0 1 64.2703 21.7175)" fill="#7427E6"/>
</svg>
