<svg width="30" height="24" viewBox="0 0 30 24" fill="none" xmlns="http://www.w3.org/2000/svg">
<path d="M27.5 0H2.5C1.12 0.00195 0.001625 1.344 0 3V21C0.001625 22.656 1.12 23.9981 2.5 24H27.5C28.88 23.9981 29.9984 22.656 30 21V3C29.9984 1.344 28.88 0.00195 27.5 0ZM29 21C29 21.9941 28.3284 22.8 27.5 22.8H2.5C1.67156 22.8 1 21.9941 1 21V3C1 2.00588 1.67156 1.2 2.5 1.2H27.5C28.3284 1.2 29 2.00588 29 3V21Z" fill="#7427E6"/>
<path d="M27.9284 2.6899C27.7862 2.40595 27.4791 2.31407 27.2424 2.4847L16.2859 10.3729C15.4948 10.9447 14.5051 10.9447 13.7139 10.3729L2.75743 2.4847C2.51818 2.31917 2.21243 2.41772 2.0745 2.70475C1.94006 2.9845 2.01425 3.3418 2.24243 3.5131L13.1999 11.4019C14.3076 12.2009 15.6923 12.2009 16.7999 11.4019L27.7574 3.5131C27.9941 3.3424 28.0706 2.97392 27.9284 2.6899Z" fill="#7427E6"/>
<path d="M2.5 4.79932C2.22387 4.79932 2 5.06797 2 5.39932V20.9993C2 21.3307 2.22387 21.5993 2.5 21.5993C2.77612 21.5993 3 21.3307 3 20.9993V5.39932C3 5.06797 2.77612 4.79932 2.5 4.79932Z" fill="#7427E6"/>
<path d="M27.5002 4.79932C27.2241 4.79932 27.0002 5.06797 27.0002 5.39932V20.9993C27.0002 21.3307 27.2241 21.5993 27.5002 21.5993C27.7764 21.5993 28.0002 21.3307 28.0002 20.9993V5.39932C28.0002 5.06797 27.7764 4.79932 27.5002 4.79932Z" fill="#7427E6"/>
</svg>
