<svg width="50" height="50" viewBox="0 0 50 50" fill="none" xmlns="http://www.w3.org/2000/svg">
<path d="M49.1667 24.1667H48.3083C48.0926 18.2747 45.6554 12.6826 41.4864 8.51362C37.3174 4.3446 31.7253 1.90744 25.8333 1.69167V0.833333C25.8333 0.61232 25.7455 0.400358 25.5893 0.244078C25.433 0.0877973 25.221 0 25 0C24.779 0 24.567 0.0877973 24.4107 0.244078C24.2545 0.400358 24.1667 0.61232 24.1667 0.833333V1.69167C18.2747 1.90744 12.6826 4.3446 8.51362 8.51362C4.3446 12.6826 1.90744 18.2747 1.69167 24.1667H0.833333C0.61232 24.1667 0.400358 24.2545 0.244078 24.4107C0.0877973 24.567 0 24.779 0 25C0 25.221 0.0877973 25.433 0.244078 25.5893C0.400358 25.7455 0.61232 25.8333 0.833333 25.8333H1.69167C1.90744 31.7253 4.3446 37.3174 8.51362 41.4864C12.6826 45.6554 18.2747 48.0926 24.1667 48.3083V49.1667C24.1667 49.3877 24.2545 49.5996 24.4107 49.7559C24.567 49.9122 24.779 50 25 50C25.221 50 25.433 49.9122 25.5893 49.7559C25.7455 49.5996 25.8333 49.3877 25.8333 49.1667V48.3083C31.7253 48.0926 37.3174 45.6554 41.4864 41.4864C45.6554 37.3174 48.0926 31.7253 48.3083 25.8333H49.1667C49.3877 25.8333 49.5996 25.7455 49.7559 25.5893C49.9122 25.433 50 25.221 50 25C50 24.779 49.9122 24.567 49.7559 24.4107C49.5996 24.2545 49.3877 24.1667 49.1667 24.1667ZM45.8333 25.8333H46.6417C46.4274 31.2835 44.1663 36.4526 40.3095 40.3095C36.4526 44.1663 31.2835 46.4274 25.8333 46.6417V45.8333C25.8333 45.6123 25.7455 45.4004 25.5893 45.2441C25.433 45.0878 25.221 45 25 45C24.779 45 24.567 45.0878 24.4107 45.2441C24.2545 45.4004 24.1667 45.6123 24.1667 45.8333V46.6417C18.7165 46.4274 13.5474 44.1663 9.69055 40.3095C5.8337 36.4526 3.57262 31.2835 3.35833 25.8333H4.16667C4.38768 25.8333 4.59964 25.7455 4.75592 25.5893C4.9122 25.433 5 25.221 5 25C5 24.779 4.9122 24.567 4.75592 24.4107C4.59964 24.2545 4.38768 24.1667 4.16667 24.1667H3.35833C3.57262 18.7165 5.8337 13.5474 9.69055 9.69055C13.5474 5.8337 18.7165 3.57262 24.1667 3.35833V4.16667C24.1667 4.38768 24.2545 4.59964 24.4107 4.75592C24.567 4.9122 24.779 5 25 5C25.221 5 25.433 4.9122 25.5893 4.75592C25.7455 4.59964 25.8333 4.38768 25.8333 4.16667V3.35833C31.2835 3.57262 36.4526 5.8337 40.3095 9.69055C44.1663 13.5474 46.4274 18.7165 46.6417 24.1667H45.8333C45.6123 24.1667 45.4004 24.2545 45.2441 24.4107C45.0878 24.567 45 24.779 45 25C45 25.221 45.0878 25.433 45.2441 25.5893C45.4004 25.7455 45.6123 25.8333 45.8333 25.8333Z" fill="#7427E6"/>
<path d="M43.3333 26.0667V18.3001C43.3281 18.1641 43.2897 18.0315 43.2214 17.9139C43.1531 17.7962 43.0571 17.6971 42.9417 17.6251L25.4417 6.79172C25.3088 6.70996 25.1559 6.66667 25 6.66667C24.844 6.66667 24.6911 6.70996 24.5583 6.79172L7.05833 17.6251C6.94202 17.6971 6.84525 17.7967 6.77654 17.915C6.70783 18.0333 6.6693 18.1667 6.66436 18.3034C6.65942 18.4401 6.68822 18.5759 6.7482 18.6989C6.80819 18.8218 6.89753 18.9281 7.00832 19.0084L13.3333 23.6001V25.0001C13.3333 27.1501 20.2333 28.3334 25 28.3334C29.7667 28.3334 36.6667 27.1501 36.6667 25.0001V23.6001L41.6667 19.9667V26.0667C41.3489 26.2502 41.1006 26.5333 40.9602 26.8723C40.8198 27.2113 40.7952 27.5871 40.8901 27.9415C40.9851 28.2959 41.1943 28.609 41.4854 28.8324C41.7765 29.0557 42.1331 29.1768 42.5 29.1768C42.8669 29.1768 43.2235 29.0557 43.5146 28.8324C43.8057 28.609 44.0149 28.2959 44.1099 27.9415C44.2048 27.5871 44.1802 27.2113 44.0398 26.8723C43.8994 26.5333 43.6511 26.2502 43.3333 26.0667ZM35 24.8167C34.3 25.4084 30.3167 26.6667 25 26.6667C19.6833 26.6667 15.7 25.4084 15 24.8167V24.1667C15 23.2917 18.4333 21.6667 25 21.6667C31.5667 21.6667 35 23.2917 35 24.1667V24.8167ZM35 21.8501C32.85 20.5917 28.9167 20.0001 25 20.0001C21.0833 20.0001 17.15 20.5917 15 21.8501V19.1667C15 18.2917 18.4333 16.6667 25 16.6667C31.5667 16.6667 35 18.2917 35 19.1667V21.8501ZM36.6667 21.5417V19.1667C36.6667 16.2917 30.8083 15.0001 25 15.0001C19.1917 15.0001 13.3333 16.2917 13.3333 19.1667V21.5417L8.99166 18.3917L25 8.48339L41.0083 18.3917L36.6667 21.5417Z" fill="#7427E6"/>
<path d="M38.3332 29.1667H11.6665C11.0041 29.1687 10.3693 29.4327 9.90092 29.9011C9.43251 30.3695 9.16848 31.0042 9.1665 31.6667V33.3333C9.16848 33.9958 9.43251 34.6305 9.90092 35.0989C10.3693 35.5673 11.0041 35.8314 11.6665 35.8333H11.9248L13.0915 38.9417C13.1528 39.1001 13.2602 39.2364 13.3999 39.3329C13.5396 39.4295 13.705 39.4819 13.8748 39.4833C13.9777 39.4842 14.0798 39.4643 14.1748 39.425L22.3332 36.275L21.6748 41.5667C21.6535 41.7384 21.6862 41.9125 21.7683 42.0648C21.8505 42.2172 21.978 42.3401 22.1332 42.4167C22.29 42.4911 22.4658 42.5158 22.6371 42.4875C22.8084 42.4592 22.9669 42.3793 23.0915 42.2583L24.9998 40.3417L26.9082 42.2583C27.0658 42.4138 27.2785 42.5007 27.4998 42.5C27.6269 42.5013 27.7525 42.4727 27.8665 42.4167C28.0217 42.3401 28.1492 42.2172 28.2313 42.0648C28.3135 41.9125 28.3462 41.7384 28.3248 41.5667L27.6498 36.15L38.1082 39.1333C38.1809 39.1566 38.2569 39.1679 38.3332 39.1667C38.5542 39.1667 38.7661 39.0789 38.9224 38.9226C39.0787 38.7663 39.1665 38.5544 39.1665 38.3333V35.6833C39.6521 35.5104 40.0727 35.192 40.3709 34.7715C40.6691 34.351 40.8305 33.8488 40.8332 33.3333V31.6667C40.8312 31.0042 40.5672 30.3695 40.0988 29.9011C39.6303 29.4327 38.9956 29.1687 38.3332 29.1667ZM12.4998 33.3333C12.4998 33.5544 12.412 33.7663 12.2558 33.9226C12.0995 34.0789 11.8875 34.1667 11.6665 34.1667C11.4455 34.1667 11.2335 34.0789 11.0772 33.9226C10.921 33.7663 10.8332 33.5544 10.8332 33.3333V31.6667C10.8332 31.4457 10.921 31.2337 11.0772 31.0774C11.2335 30.9211 11.4455 30.8333 11.6665 30.8333C11.8875 30.8333 12.0995 30.9211 12.2558 31.0774C12.412 31.2337 12.4998 31.4457 12.4998 31.6667V33.3333ZM14.3582 37.5667L13.6998 35.8333H18.8582L14.3582 37.5667ZM23.3332 33.3333C23.3332 33.5544 23.2454 33.7663 23.0891 33.9226C22.9328 34.0789 22.7209 34.1667 22.4998 34.1667H14.0165C14.1135 33.8994 14.1642 33.6176 14.1665 33.3333V31.6667C14.1642 31.3824 14.1135 31.1006 14.0165 30.8333H22.4998C22.7209 30.8333 22.9328 30.9211 23.0891 31.0774C23.2454 31.2337 23.3332 31.4457 23.3332 31.6667V33.3333ZM25.5915 38.575C25.4342 38.4189 25.2215 38.3313 24.9998 38.3313C24.7782 38.3313 24.5655 38.4189 24.4082 38.575L23.6248 39.3583L24.0665 35.8333H25.9332L26.3748 39.3583L25.5915 38.575ZM26.6665 33.3333C26.6665 33.5544 26.5787 33.7663 26.4224 33.9226C26.2661 34.0789 26.0542 34.1667 25.8332 34.1667H24.8498C24.9469 33.8994 24.9976 33.6176 24.9998 33.3333V31.6667C24.9976 31.3824 24.9469 31.1006 24.8498 30.8333H25.8332C26.0542 30.8333 26.2661 30.9211 26.4224 31.0774C26.5787 31.2337 26.6665 31.4457 26.6665 31.6667V33.3333ZM37.4998 37.225L32.6165 35.8333H37.4998V37.225ZM39.1665 33.3333C39.1665 33.5544 39.0787 33.7663 38.9224 33.9226C38.7661 34.0789 38.5542 34.1667 38.3332 34.1667H28.1832C28.2802 33.8994 28.3309 33.6176 28.3332 33.3333V31.6667C28.3309 31.3824 28.2802 31.1006 28.1832 30.8333H38.3332C38.5542 30.8333 38.7661 30.9211 38.9224 31.0774C39.0787 31.2337 39.1665 31.4457 39.1665 31.6667V33.3333Z" fill="#7427E6"/>
</svg>
