<svg width="46" height="37" viewBox="0 0 46 37" fill="none" xmlns="http://www.w3.org/2000/svg">
<path d="M19.149 26.8518C19.5598 26.6983 19.9232 26.4398 20.203 26.1021C20.4828 25.7643 20.6691 25.3591 20.7435 24.9269C20.7618 24.819 20.7588 24.7086 20.7345 24.6019C20.7101 24.4952 20.6651 24.3943 20.6018 24.305C20.5385 24.2157 20.4582 24.1398 20.3655 24.0815C20.2729 24.0233 20.1697 23.9838 20.0618 23.9655C19.9539 23.9471 19.8435 23.9502 19.7367 23.9745C19.63 23.9988 19.5292 24.0439 19.4399 24.1072C19.3506 24.1705 19.2747 24.2507 19.2164 24.3434C19.1582 24.436 19.1187 24.5392 19.1003 24.6471C19.0757 24.7913 19.0137 24.9266 18.9205 25.0393C18.8272 25.1521 18.7061 25.2384 18.5691 25.2897C18.4323 25.3413 18.2843 25.3554 18.1402 25.3307C18.0318 25.311 17.9206 25.313 17.813 25.3367C17.7053 25.3603 17.6034 25.405 17.5132 25.4682C17.423 25.5315 17.3462 25.612 17.2873 25.7051C17.2284 25.7982 17.1885 25.9021 17.17 26.0107C17.1515 26.1194 17.1548 26.2306 17.1795 26.3379C17.2043 26.4453 17.2501 26.5467 17.3143 26.6362C17.3785 26.7258 17.4598 26.8017 17.5536 26.8596C17.6473 26.9175 17.7516 26.9563 17.8604 26.9736C17.9981 26.9971 18.1375 27.0089 18.2771 27.0089C18.5748 27.0087 18.87 26.9555 19.149 26.8518Z" fill="#7427E6"/>
<path d="M17.5081 31.1702C17.6127 31.3649 17.7903 31.5101 18.002 31.5738C18.2136 31.6375 18.4419 31.6146 18.6366 31.51C18.7656 31.4408 18.9105 31.4067 19.0568 31.4111C19.2032 31.4154 19.3458 31.458 19.4705 31.5347C19.5951 31.6107 19.6971 31.7186 19.766 31.8472C19.8706 32.0419 20.0482 32.1872 20.2599 32.251C20.4715 32.3148 20.6999 32.2919 20.8946 32.1873C21.0894 32.0828 21.2347 31.9051 21.2984 31.6935C21.3622 31.4818 21.3393 31.2535 21.2348 31.0587C21.0509 30.7172 20.79 30.4231 20.4727 30.1999C20.3724 30.0082 20.3509 29.7849 20.4128 29.5776C20.4747 29.3703 20.6151 29.1954 20.8042 29.0902C20.8995 29.0365 20.9834 28.9646 21.051 28.8786C21.1186 28.7925 21.1686 28.6939 21.1981 28.5886C21.2276 28.4832 21.2361 28.373 21.223 28.2644C21.21 28.1557 21.1756 28.0507 21.122 27.9553C21.0683 27.8599 20.9964 27.776 20.9103 27.7084C20.8243 27.6408 20.7257 27.5909 20.6203 27.5613C20.515 27.5318 20.4048 27.5234 20.2961 27.5364C20.1875 27.5495 20.0825 27.5838 19.9871 27.6375C19.6083 27.8513 19.2917 28.16 19.0683 28.5331C18.8448 28.9063 18.7223 29.3311 18.7126 29.7659C18.41 29.804 18.117 29.8973 17.848 30.0411C17.7515 30.0929 17.6662 30.1632 17.5969 30.248C17.5276 30.3327 17.4756 30.4304 17.4441 30.5352C17.4125 30.6401 17.4019 30.7501 17.4129 30.8591C17.4239 30.968 17.4562 31.0737 17.5081 31.1702Z" fill="#7427E6"/>
<path d="M26.8512 26.8518C27.1302 26.9552 27.4254 27.0081 27.723 27.008C27.8626 27.008 28.002 26.9962 28.1396 26.9727C28.2485 26.9554 28.3528 26.9167 28.4465 26.8587C28.5402 26.8008 28.6216 26.7249 28.6858 26.6354C28.75 26.5458 28.7958 26.4444 28.8206 26.3371C28.8453 26.2297 28.8486 26.1185 28.8301 26.0099C28.8116 25.9012 28.7717 25.7974 28.7128 25.7043C28.6539 25.6111 28.5771 25.5306 28.4869 25.4674C28.3966 25.4041 28.2948 25.3594 28.1871 25.3358C28.0795 25.3122 27.9683 25.3102 27.8599 25.3298C27.7158 25.3545 27.5679 25.3404 27.4311 25.289C27.294 25.2377 27.1728 25.1514 27.0795 25.0386C26.9862 24.9258 26.924 24.7905 26.8993 24.6463C26.8622 24.4284 26.7401 24.2342 26.5598 24.1063C26.3795 23.9785 26.1558 23.9275 25.9379 23.9646C25.72 24.0017 25.5258 24.1238 25.3979 24.3042C25.2701 24.4845 25.2191 24.7082 25.2562 24.9261C25.3305 25.3585 25.5168 25.7639 25.7967 26.1018C26.0766 26.4397 26.4402 26.6983 26.8512 26.8518Z" fill="#7427E6"/>
<path d="M25.1057 32.1873C25.2021 32.2392 25.3078 32.2715 25.4167 32.2825C25.5256 32.2935 25.6356 32.2829 25.7404 32.2513C25.8452 32.2198 25.9428 32.1679 26.0275 32.0985C26.1122 32.0292 26.1824 31.9439 26.2342 31.8474C26.3031 31.7188 26.4052 31.6109 26.5298 31.5349C26.6544 31.4584 26.797 31.4159 26.9432 31.4115C27.0894 31.4072 27.2342 31.4412 27.3631 31.5103C27.5579 31.6148 27.7862 31.6377 27.9979 31.5739C28.2095 31.5102 28.3872 31.3649 28.4918 31.1701C28.5963 30.9754 28.6192 30.7471 28.5555 30.5354C28.4917 30.3237 28.3464 30.1461 28.1517 30.0415C27.8827 29.8977 27.5897 29.8045 27.2871 29.7664C27.2774 29.3316 27.1548 28.9067 26.9314 28.5335C26.708 28.1604 26.3913 27.8517 26.0126 27.6379C25.82 27.5295 25.5922 27.5021 25.3793 27.5617C25.1665 27.6213 24.9861 27.763 24.8777 27.9557C24.7694 28.1483 24.742 28.3761 24.8016 28.5889C24.8612 28.8018 25.0029 28.9822 25.1955 29.0906C25.3845 29.1958 25.525 29.3707 25.5869 29.578C25.6488 29.7853 25.6273 30.0086 25.527 30.2003C25.2097 30.4235 24.9488 30.7175 24.7649 31.0591C24.7132 31.1556 24.681 31.2613 24.6701 31.3702C24.6593 31.4791 24.67 31.589 24.7016 31.6938C24.7333 31.7986 24.7852 31.8961 24.8546 31.9808C24.9239 32.0654 25.0093 32.1356 25.1057 32.1873Z" fill="#7427E6"/>
<path d="M1.43472 22.7395C2.85107 25.0083 4.73704 26.9474 6.96568 28.4261C9.19432 29.9049 11.7139 30.8891 14.3548 31.3124C14.4666 31.4573 14.5939 31.5896 14.7345 31.7069C14.6552 32.0408 14.6455 32.3875 14.7058 32.7254C14.7662 33.0633 14.8955 33.3852 15.0856 33.671C15.2757 33.9568 15.5225 34.2004 15.8108 34.3868C16.099 34.5731 16.4225 34.6982 16.7612 34.7542C17.0448 35.2586 17.4549 35.6804 17.951 35.9783C18.4472 36.2761 19.0123 36.4397 19.5908 36.4529C20.1694 36.466 20.7413 36.3284 21.2505 36.0534C21.7597 35.7784 22.1885 35.3756 22.4948 34.8847C22.676 34.807 22.846 34.7054 23.0001 34.5826C23.1543 34.7054 23.3243 34.807 23.5055 34.8847C23.8117 35.3756 24.2406 35.7784 24.7497 36.0533C25.2589 36.3283 25.8309 36.4659 26.4094 36.4528C26.9879 36.4396 27.553 36.2761 28.0492 35.9782C28.5453 35.6804 28.9554 35.2585 29.239 34.7542C29.5777 34.6982 29.9012 34.5731 30.1894 34.3868C30.4777 34.2005 30.7246 33.9568 30.9147 33.671C31.1048 33.3852 31.234 33.0633 31.2944 32.7254C31.3548 32.3875 31.3451 32.0408 31.2658 31.7069C31.3809 31.6105 31.4872 31.504 31.5834 31.3886C34.3236 31.0311 36.9503 30.0698 39.2741 28.5742C41.5978 27.0785 43.5606 25.0857 45.0209 22.7396L45.1031 22.6081C45.4456 22.0619 45.6627 21.4466 45.7389 20.8065C45.8151 20.1663 45.7484 19.5172 45.5437 18.9059L45.3921 18.4511C44.3674 15.3794 43.0461 12.4147 41.4471 9.59884C41.3812 9.48286 41.2884 9.3844 41.1766 9.31174C41.0647 9.23907 40.9371 9.19431 40.8043 9.18123L38.5371 8.95769C38.3455 8.93867 38.1533 8.98671 37.9932 9.09363L35.4932 10.7603C35.341 10.8617 35.2265 11.0103 35.1671 11.1832C35.1078 11.3561 35.1069 11.5437 35.1647 11.7172L35.9981 14.2172C36.0534 14.3831 36.1595 14.5274 36.3014 14.6297C36.4433 14.732 36.6138 14.787 36.7887 14.787H37.7592L38.4186 18.4301L37.1887 20.8332C35.2575 20.2322 33.2064 20.1248 31.223 20.5207L30.9771 20.5699C30.596 20.2484 30.1474 20.0166 29.6646 19.8919C29.6661 19.8571 29.6668 19.8222 29.6668 19.787C29.666 19.2188 29.4721 18.6677 29.1168 18.2243C28.7616 17.7809 28.2661 17.4714 27.7117 17.3468L27.6377 17.1989C27.4318 16.7874 27.1295 16.4317 26.7565 16.1621C26.3836 15.8924 25.951 15.7169 25.4956 15.6505C25.0402 15.584 24.5755 15.6285 24.141 15.7802C23.7065 15.9319 23.3151 16.1864 23.0001 16.5219C22.6851 16.1864 22.2937 15.9319 21.8593 15.7802C21.4248 15.6285 20.9601 15.584 20.5047 15.6505C20.0493 15.7169 19.6167 15.8924 19.2438 16.1621C18.8708 16.4317 18.5685 16.7874 18.3625 17.1989L18.2886 17.3468C17.7343 17.4714 17.2388 17.7808 16.8835 18.2242C16.5282 18.6676 16.3343 19.2186 16.3335 19.7868C16.3335 19.8215 16.3342 19.8564 16.3357 19.8917C15.8899 20.0068 15.4728 20.2133 15.1111 20.4981C13.1651 20.13 11.1585 20.2451 9.26733 20.8333L8.03722 18.4299L8.69649 14.7868H9.66681C9.84171 14.7868 10.0122 14.7317 10.1541 14.6295C10.296 14.5272 10.4021 14.3829 10.4574 14.217L11.2908 11.717C11.3486 11.5435 11.3477 11.3559 11.2884 11.183C11.2291 11.0101 11.1145 10.8615 10.9624 10.7601L8.46243 9.09342C8.30226 8.98655 8.10999 8.93851 7.91837 8.95748L5.65118 9.18102C5.51843 9.1941 5.39076 9.23886 5.27891 9.31153C5.16705 9.3842 5.07427 9.48265 5.00837 9.59863C3.40937 12.4145 2.08814 15.3792 1.06337 18.4509L0.911805 18.9061C0.70709 19.5174 0.640419 20.1664 0.716591 20.8065C0.792763 21.4466 1.00988 22.0619 1.35233 22.608L1.43472 22.7395ZM35.7576 23.2824C35.658 23.2371 35.5504 23.2119 35.4411 23.2081C35.3317 23.2044 35.2226 23.2223 35.1202 23.2607C35.0177 23.2991 34.9238 23.3573 34.8438 23.4321C34.7639 23.5068 34.6994 23.5965 34.6541 23.6961L33.7918 25.5928L32.0273 25.5046C31.9535 25.2541 31.8505 25.0131 31.7202 24.7868C31.9551 24.3802 32.1014 23.9285 32.1494 23.4614C32.1974 22.9943 32.146 22.5223 31.9988 22.0764C33.6376 21.823 35.3132 21.9637 36.8868 22.4871L37.342 22.6387C37.531 22.7017 37.7363 22.6949 37.9207 22.6195C38.1051 22.5442 38.2564 22.4052 38.3472 22.2279L40.0308 18.9383C40.1141 18.7757 40.1416 18.5901 40.109 18.4103L39.2757 13.8051C39.2409 13.6129 39.1398 13.4391 38.9899 13.3139C38.84 13.1887 38.6509 13.1201 38.4557 13.1201H37.3896L36.9481 11.7937L38.6702 10.6457L40.2091 10.7975C41.6604 13.4071 42.8663 16.1458 43.8112 18.9784L43.9627 19.4331C44.0895 19.8116 44.1308 20.2135 44.0836 20.6098C44.0365 21.0062 43.902 21.3871 43.6899 21.7253L43.6077 21.8568C42.3492 23.8793 40.6798 25.6149 38.7077 26.9511C36.7356 28.2874 34.5048 29.1944 32.1598 29.6135C32.1252 29.1182 31.9439 28.6444 31.639 28.2526C31.8503 27.923 32.0019 27.5589 32.0869 27.1768L34.2744 27.2861C34.2885 27.2869 34.3023 27.2872 34.3161 27.2872C34.476 27.2871 34.6326 27.2411 34.7671 27.1545C34.9016 27.0678 35.0083 26.9444 35.0745 26.7987L36.171 24.3864C36.2163 24.2868 36.2416 24.1792 36.2453 24.0698C36.2491 23.9604 36.2313 23.8513 36.1928 23.7488C36.1544 23.6463 36.0962 23.5524 36.0215 23.4724C35.9467 23.3924 35.8573 23.3277 35.7576 23.2824ZM23.8335 21.1386C23.8763 21.0325 23.9409 20.9365 24.023 20.8568C24.128 20.7548 24.2579 20.6822 24.3998 20.6462C24.5416 20.6101 24.6904 20.6119 24.8314 20.6512C24.9369 20.6814 25.0474 20.6904 25.1565 20.6778C25.2655 20.6651 25.371 20.6311 25.4668 20.5775C25.5627 20.524 25.647 20.4521 25.715 20.3658C25.7829 20.2796 25.8332 20.1808 25.8628 20.0751C25.8925 19.9694 25.901 19.8589 25.8878 19.7499C25.8746 19.6409 25.84 19.5356 25.786 19.44C25.732 19.3445 25.6596 19.2605 25.5731 19.193C25.4865 19.1254 25.3874 19.0757 25.2816 19.0465C24.8065 18.9138 24.3028 18.9242 23.8337 19.0765V18.3169L24.02 17.9441C24.1188 17.7466 24.2706 17.5805 24.4585 17.4644C24.6463 17.3482 24.8628 17.2867 25.0837 17.2867C25.3045 17.2867 25.521 17.3482 25.7089 17.4644C25.8968 17.5805 26.0486 17.7466 26.1473 17.9441L26.4217 18.4928C26.4909 18.6312 26.5972 18.7476 26.7288 18.8289C26.8604 18.9103 27.0121 18.9534 27.1668 18.9534C27.3877 18.9537 27.5996 19.0415 27.7558 19.1978C27.912 19.354 27.9999 19.5658 28.0001 19.7868C28.0002 19.8235 27.9977 19.8603 27.9928 19.8968C27.4658 20.0343 26.9804 20.2986 26.579 20.6668C26.1776 21.035 25.8723 21.4958 25.6899 22.009C25.6163 22.2174 25.6284 22.4465 25.7237 22.646C25.819 22.8454 25.9896 22.9988 26.198 23.0725C26.4063 23.1461 26.6355 23.134 26.8349 23.0387C27.0343 22.9434 27.1877 22.7729 27.2614 22.5645C27.3684 22.2632 27.5597 21.999 27.8124 21.8033C28.0652 21.6075 28.3689 21.4885 28.6873 21.4603C28.7 21.4591 28.712 21.4585 28.7243 21.4576C28.7606 21.4553 28.7972 21.4533 28.8335 21.4533C29.1551 21.4534 29.4699 21.5466 29.7398 21.7216C30.0097 21.8966 30.2232 22.1459 30.3545 22.4396C30.4858 22.7332 30.5294 23.0586 30.4799 23.3764C30.4304 23.6943 30.29 23.991 30.0756 24.2308C29.9387 24.3836 29.8631 24.5816 29.8631 24.7867C29.8631 24.9918 29.9387 25.1898 30.0756 25.3426C30.3191 25.6138 30.4666 25.9577 30.4951 26.3211C30.5236 26.6845 30.4315 27.0472 30.2332 27.353C29.6154 27.2073 28.9653 27.3035 28.4162 27.6217C28.2249 27.7323 28.0854 27.9145 28.0283 28.128C27.9713 28.3415 28.0014 28.569 28.1121 28.7603C28.2228 28.9516 28.4049 29.0911 28.6185 29.1481C28.832 29.2052 29.0595 29.175 29.2508 29.0644C29.3756 28.9932 29.5166 28.9553 29.6602 28.9543C29.8039 28.9533 29.9454 28.9892 30.0712 29.0586L30.073 29.0598C30.2131 29.1378 30.3277 29.2547 30.403 29.3964C30.4782 29.538 30.5109 29.6984 30.497 29.8582C30.4832 30.0181 30.4234 30.1705 30.3249 30.2971C30.2264 30.4237 30.0934 30.5191 29.9419 30.5719C29.8218 30.614 29.7128 30.6831 29.6235 30.7738C29.5342 30.8646 29.4669 30.9746 29.4268 31.0954C29.3866 31.2163 29.3747 31.3447 29.3919 31.4708C29.4091 31.597 29.4549 31.7175 29.526 31.8232C29.6099 31.9487 29.6583 32.0946 29.6658 32.2454C29.6733 32.3961 29.6397 32.5461 29.5686 32.6793C29.4975 32.8124 29.3915 32.9238 29.262 33.0014C29.1326 33.0791 28.9844 33.1201 28.8335 33.1201C28.8096 33.1201 28.7863 33.1179 28.763 33.1159C28.5788 33.1003 28.3948 33.1463 28.2397 33.2468C28.0846 33.3473 27.9674 33.4965 27.9065 33.6709C27.7975 33.9827 27.5983 34.255 27.3342 34.4534C27.0702 34.6517 26.7531 34.7672 26.4234 34.785C26.0936 34.8029 25.7659 34.7224 25.482 34.5537C25.198 34.385 24.9706 34.1357 24.8286 33.8376C24.7743 33.724 24.6949 33.6242 24.5965 33.5456C24.4981 33.4671 24.3832 33.4119 24.2603 33.3841C24.1389 33.3573 24.0303 33.2897 23.9526 33.1925C23.8749 33.0953 23.8328 32.9745 23.8333 32.8501L23.8335 21.1386ZM17.5841 27.6218C17.0349 27.3036 16.3849 27.2074 15.7671 27.3531C15.5688 27.0473 15.4767 26.6846 15.5052 26.3212C15.5337 25.9578 15.6811 25.6139 15.9247 25.3427C16.0616 25.1899 16.1372 24.9919 16.1372 24.7868C16.1372 24.5817 16.0616 24.3837 15.9247 24.2309C15.7103 23.9911 15.5699 23.6944 15.5204 23.3766C15.4709 23.0587 15.5145 22.7333 15.6458 22.4397C15.7771 22.1461 15.9906 21.8967 16.2605 21.7217C16.5304 21.5467 16.8451 21.4535 17.1668 21.4534C17.2035 21.4534 17.2397 21.4554 17.276 21.4577C17.2883 21.4586 17.3002 21.4593 17.313 21.4604C17.6314 21.4886 17.9351 21.6077 18.1878 21.8034C18.4406 21.9991 18.6319 22.2633 18.7389 22.5646C18.7754 22.6678 18.8318 22.7627 18.905 22.8441C18.9782 22.9255 19.0666 22.9916 19.1654 23.0388C19.2641 23.086 19.3712 23.1133 19.4805 23.1191C19.5898 23.1248 19.6991 23.1091 19.8023 23.0726C19.9055 23.0361 20.0005 22.9797 20.0819 22.9065C20.1632 22.8333 20.2294 22.7448 20.2766 22.6461C20.3238 22.5473 20.351 22.4403 20.3568 22.331C20.3626 22.2217 20.3468 22.1123 20.3103 22.0092C20.1279 21.4959 19.8227 21.0351 19.4213 20.6669C19.0199 20.2987 18.5345 20.0343 18.0074 19.8968C18.0025 19.8603 18.0001 19.8235 18.0001 19.7868C18.0004 19.5658 18.0883 19.354 18.2445 19.1978C18.4007 19.0415 18.6125 18.9537 18.8335 18.9534C18.9882 18.9534 19.1399 18.9103 19.2716 18.829C19.4032 18.7476 19.5096 18.6312 19.5788 18.4928L19.8532 17.9441C19.9519 17.7466 20.1037 17.5805 20.2916 17.4644C20.4795 17.3482 20.696 17.2867 20.9168 17.2867C21.1377 17.2867 21.3541 17.3482 21.542 17.4644C21.7299 17.5805 21.8817 17.7466 21.9805 17.9441L22.1668 18.3169V19.0765C21.6976 18.9242 21.194 18.9138 20.7189 19.0465C20.613 19.0757 20.514 19.1254 20.4274 19.193C20.3409 19.2605 20.2685 19.3445 20.2145 19.44C20.1605 19.5356 20.1259 19.6409 20.1127 19.7499C20.0995 19.8589 20.108 19.9694 20.1377 20.0751C20.1673 20.1808 20.2176 20.2796 20.2855 20.3658C20.3535 20.4521 20.4378 20.524 20.5336 20.5775C20.6295 20.6311 20.735 20.6651 20.844 20.6778C20.9531 20.6904 21.0635 20.6814 21.1691 20.6512C21.3101 20.6118 21.4589 20.6101 21.6008 20.6462C21.7427 20.6823 21.8726 20.7549 21.9776 20.8569C22.0596 20.9364 22.1241 21.0322 22.167 21.1381V32.8498C22.1675 32.9742 22.1254 33.095 22.0477 33.1922C21.97 33.2893 21.8614 33.357 21.7399 33.3838C21.6171 33.4116 21.5022 33.4668 21.4038 33.5453C21.3053 33.6239 21.226 33.7237 21.1717 33.8373C21.0297 34.1355 20.8023 34.3847 20.5183 34.5535C20.2344 34.7222 19.9067 34.8027 19.5769 34.7848C19.2471 34.767 18.93 34.6515 18.6659 34.4532C18.4019 34.2548 18.2027 33.9824 18.0937 33.6706C18.0366 33.5076 17.9303 33.3664 17.7895 33.2665C17.6487 33.1665 17.4803 33.1128 17.3076 33.1127C17.2842 33.1127 17.2607 33.1137 17.2371 33.1156C17.2138 33.1176 17.1906 33.1198 17.1668 33.1198C17.0159 33.1198 16.8678 33.0787 16.7383 33.0011C16.6088 32.9235 16.5029 32.8121 16.4318 32.679C16.3607 32.5458 16.3271 32.3959 16.3346 32.2451C16.3421 32.0944 16.3904 31.9485 16.4743 31.823C16.5453 31.7173 16.5912 31.5968 16.6084 31.4706C16.6256 31.3445 16.6137 31.216 16.5735 31.0952C16.5334 30.9744 16.466 30.8644 16.3767 30.7736C16.2874 30.6829 16.1785 30.6138 16.0584 30.5716C15.9069 30.5189 15.7739 30.4235 15.6754 30.2969C15.5769 30.1702 15.5171 30.0178 15.5033 29.858C15.4894 29.6982 15.5221 29.5378 15.5973 29.3961C15.6726 29.2545 15.7872 29.1376 15.9273 29.0596L15.9291 29.0584C16.0549 28.989 16.1964 28.9531 16.3401 28.9541C16.4837 28.9551 16.6247 28.993 16.7495 29.0642C16.9408 29.1748 17.1683 29.205 17.3818 29.1479C17.5953 29.0909 17.7775 28.9514 17.8882 28.7601C17.9988 28.5688 18.029 28.3413 17.972 28.1278C17.9149 27.9143 17.7754 27.7324 17.5841 27.6218ZM2.49306 19.4327L2.64462 18.978C3.58955 16.1454 4.79542 13.4067 6.2467 10.7971L7.78556 10.6457L9.50837 11.7941L9.06618 13.1205H8.00014C7.80486 13.1205 7.61578 13.1891 7.46591 13.3143C7.31604 13.4395 7.2149 13.6133 7.18014 13.8055L6.34681 18.4107C6.31421 18.5906 6.3417 18.7762 6.42503 18.9388L8.10858 22.2282C8.19934 22.4056 8.35064 22.5445 8.53505 22.6199C8.71946 22.6953 8.92478 22.7021 9.11378 22.6392L9.5691 22.4875C11.0016 22.0111 12.5204 21.8511 14.0207 22.0187C13.8621 22.4717 13.8033 22.9535 13.848 23.4312C13.8928 23.909 14.0401 24.3715 14.28 24.7871C14.1457 25.0204 14.0402 25.2692 13.9659 25.528L12.6638 25.5931L11.8022 23.6963C11.7108 23.4951 11.5431 23.3385 11.3362 23.2609C11.1292 23.1833 10.8999 23.1911 10.6987 23.2825C10.4975 23.374 10.3409 23.5416 10.2633 23.7486C10.1857 23.9555 10.1935 24.1848 10.2849 24.386L11.3814 26.7983C11.4476 26.9439 11.5543 27.0674 11.6888 27.154C11.8233 27.2406 11.9799 27.2867 12.1398 27.2868C12.1538 27.2868 12.1677 27.2868 12.1815 27.2857L13.9192 27.1988C14.0049 27.5728 14.1544 27.9291 14.3612 28.2522C14.0749 28.6207 13.8975 29.0619 13.8488 29.526C11.5922 29.0571 9.45399 28.1357 7.56329 26.8176C5.6726 25.4994 4.06862 23.8118 2.84816 21.8566L2.76576 21.7246C2.55374 21.3865 2.41931 21.0055 2.37215 20.6092C2.325 20.2129 2.36629 19.8111 2.49306 19.4327Z" fill="#7427E6"/>
<path d="M13 15.6201V17.2868C13 17.5078 13.0878 17.7197 13.2441 17.876C13.4004 18.0323 13.6123 18.1201 13.8333 18.1201C14.0543 18.1201 14.2663 18.0323 14.4226 17.876C14.5789 17.7197 14.6667 17.5078 14.6667 17.2868V15.6201C14.6667 15.3991 14.5789 15.1871 14.4226 15.0308C14.2663 14.8746 14.0543 14.7868 13.8333 14.7868C13.6123 14.7868 13.4004 14.8746 13.2441 15.0308C13.0878 15.1871 13 15.3991 13 15.6201Z" fill="#7427E6"/>
<path d="M9.91084 16.6978C9.83345 16.7752 9.77207 16.867 9.73019 16.9681C9.6883 17.0693 9.66675 17.1776 9.66675 17.2871C9.66675 17.3965 9.6883 17.5049 9.73019 17.606C9.77207 17.7071 9.83345 17.7989 9.91084 17.8763L10.7442 18.7097C10.9005 18.8659 11.1124 18.9537 11.3334 18.9537C11.5545 18.9537 11.7664 18.8659 11.9227 18.7097C12.079 18.5534 12.1668 18.3414 12.1668 18.1204C12.1668 17.8994 12.079 17.6874 11.9227 17.5311L11.0894 16.6978C11.012 16.6204 10.9201 16.559 10.819 16.5171C10.7179 16.4753 10.6096 16.4537 10.5001 16.4537C10.3907 16.4537 10.2823 16.4753 10.1812 16.5171C10.0801 16.559 9.98822 16.6204 9.91084 16.6978Z" fill="#7427E6"/>
<path d="M32.1668 18.1201C32.3878 18.1201 32.5998 18.0323 32.7561 17.876C32.9124 17.7197 33.0002 17.5078 33.0002 17.2868V15.6201C33.0002 15.3991 32.9124 15.1871 32.7561 15.0308C32.5998 14.8746 32.3878 14.7868 32.1668 14.7868C31.9458 14.7868 31.7339 14.8746 31.5776 15.0308C31.4213 15.1871 31.3335 15.3991 31.3335 15.6201V17.2868C31.3335 17.5078 31.4213 17.7197 31.5776 17.876C31.7339 18.0323 31.9458 18.1201 32.1668 18.1201Z" fill="#7427E6"/>
<path d="M34.0774 18.7093C34.1548 18.7867 34.2467 18.8481 34.3478 18.89C34.4489 18.9319 34.5573 18.9534 34.6667 18.9534C34.7761 18.9534 34.8845 18.9319 34.9856 18.89C35.0867 18.8481 35.1786 18.7867 35.256 18.7093L36.0893 17.876C36.2418 17.7189 36.3264 17.5082 36.3247 17.2893C36.3231 17.0704 36.2354 16.8609 36.0806 16.7062C35.9258 16.5514 35.7163 16.4638 35.4974 16.4622C35.2785 16.4606 35.0678 16.5452 34.9108 16.6978L34.0774 17.5311C33.9212 17.6874 33.8335 17.8993 33.8335 18.1202C33.8335 18.3412 33.9212 18.5531 34.0774 18.7093Z" fill="#7427E6"/>
<path d="M19.294 13.0785C20.4456 13.6509 21.7141 13.9488 23.0001 13.9488C24.286 13.9488 25.5545 13.6509 26.7061 13.0785C26.8445 13.0093 26.9609 12.9029 27.0423 12.7713C27.1236 12.6396 27.1667 12.4879 27.1667 12.3332V7.94466L27.8444 7.47226C28.3536 7.94925 28.9968 8.25864 29.6873 8.35873C30.3778 8.45883 31.0824 8.34481 31.7061 8.03206C31.902 7.93218 32.0505 7.75892 32.1192 7.55004C32.1879 7.34117 32.1713 7.1136 32.0729 6.91693C31.9746 6.72026 31.8025 6.57043 31.5941 6.5001C31.3858 6.42976 31.1581 6.44462 30.9607 6.54143C30.6968 6.67356 30.4038 6.73683 30.1089 6.72533C29.8141 6.71384 29.5269 6.62797 29.2741 6.4757L29.3692 6.40935C29.4786 6.3331 29.5681 6.23172 29.6301 6.11372C29.6922 5.99573 29.725 5.86457 29.7259 5.73125C29.7268 5.59793 29.6957 5.46635 29.6352 5.34755C29.5747 5.22875 29.4865 5.1262 29.3782 5.04852L23.4857 0.822788C23.3441 0.721264 23.1743 0.666664 23.0001 0.666664C22.8258 0.666664 22.656 0.721264 22.5144 0.822788L16.6219 5.04852C16.5136 5.1262 16.4255 5.22875 16.3649 5.34755C16.3044 5.46635 16.2733 5.59793 16.2742 5.73125C16.2751 5.86457 16.3079 5.99573 16.37 6.11372C16.4321 6.23172 16.5215 6.3331 16.6309 6.40935L18.8334 7.94466V12.3332C18.8334 12.4879 18.8765 12.6396 18.9578 12.7713C19.0392 12.9029 19.1556 13.0093 19.294 13.0785ZM25.5001 11.7962C23.8966 12.4454 22.1035 12.4454 20.5001 11.7962V9.10643L22.5235 10.5168C22.6633 10.6143 22.8296 10.6666 23.0001 10.6666C23.1705 10.6666 23.3368 10.6143 23.4766 10.5168L25.5001 9.10643V11.7962ZM18.5509 5.71612L23.0001 2.52539L27.4492 5.71612L23.0001 8.81737L18.5509 5.71612Z" fill="#7427E6"/>
</svg>
