<svg width="60" height="63" viewBox="0 0 60 63" fill="none" xmlns="http://www.w3.org/2000/svg">
<path d="M49.512 33.3354C49.0297 33.3354 48.6388 33.7543 48.6388 34.271C48.6388 34.926 48.1415 35.4588 47.5301 35.4588C46.9188 35.4588 46.4214 34.926 46.4214 34.271C46.4214 33.7542 46.0304 33.3354 45.5482 33.3354C45.066 33.3354 44.675 33.7543 44.675 34.271C44.675 35.9577 45.9559 37.3299 47.5301 37.3299C49.1043 37.3299 50.3851 35.9576 50.3851 34.271C50.3851 33.7541 49.9942 33.3354 49.512 33.3354Z" fill="black"/>
<mask id="path-2-inside-1" fill="white">
<path d="M57.7083 33.4876L55.2506 32.6441C54.9359 32.536 54.6878 32.2668 54.5871 31.9239C54.0691 30.1595 53.2875 28.503 52.2639 27.0004C51.7973 26.3155 51.2786 25.6615 50.7118 25.0388C51.0744 23.3347 51.2715 21.406 51.246 19.7398C51.2094 17.3561 50.7648 15.958 49.8868 15.4653C49.414 15.1997 47.9749 14.3926 40.1858 18.2127C40.0014 18.3031 39.8291 18.4145 39.6696 18.5421C39.1445 18.3909 38.6078 18.251 38.0678 18.1255C38.0027 18.1103 37.9357 18.0969 37.8702 18.082C38.5014 16.6048 38.8699 15.0003 38.9392 13.3439C38.9607 12.8277 38.5877 12.3905 38.1059 12.3675C37.6253 12.3419 37.2159 12.7439 37.1945 13.2602C37.0807 15.9836 36.0263 18.5461 34.2255 20.4755C33.1497 21.6282 31.8899 22.4656 30.5473 22.9929C28.2189 22.6429 25.8472 22.6429 23.5188 22.9929C22.1761 22.4656 20.9164 21.6282 19.8405 20.4755C17.9194 18.4172 16.8613 15.6804 16.8613 12.7694C16.8613 9.85826 17.9194 7.12165 19.8405 5.06329C21.7617 3.0048 24.3162 1.87116 27.033 1.87116C29.7499 1.87116 32.3044 3.0048 34.2255 5.06329C34.9976 5.89045 35.6355 6.83438 36.1218 7.86858C36.3387 8.33012 36.8638 8.51595 37.2945 8.28342C37.7252 8.05114 37.8986 7.48852 37.6816 7.02711C37.1118 5.81436 36.3645 4.70859 35.4606 3.74006C33.2095 1.32825 30.2166 0 27.0332 0C23.8498 0 20.8568 1.32825 18.6057 3.74006C16.3547 6.15198 15.115 9.35855 15.115 12.7693C15.115 16.18 16.3547 19.3867 18.6057 21.7985C19.2551 22.4942 19.9615 23.0925 20.7087 23.5937C20.7089 23.5937 20.7091 23.5936 20.7094 23.5936C20.1664 23.7447 19.6276 23.9145 19.0948 24.1053C18.6374 24.2692 18.3906 24.7991 18.5435 25.2893C18.6963 25.7794 19.1912 26.0438 19.6485 25.8801C24.4105 24.1744 29.6558 24.1744 34.4179 25.8801C34.5097 25.913 34.603 25.9285 34.6948 25.9285C35.06 25.9285 35.4006 25.6809 35.5228 25.2893C35.6757 24.7993 35.4289 24.2692 34.9716 24.1053C34.4387 23.9145 33.8999 23.7446 33.357 23.5936C33.3572 23.5936 33.3574 23.5937 33.3577 23.5937C34.105 23.0925 34.8112 22.4942 35.4606 21.7985C36.035 21.183 36.5421 20.5109 36.9824 19.7966C37.2231 19.8467 37.462 19.8992 37.6975 19.954C38.0111 20.0269 38.3232 20.1052 38.6326 20.1875C38.6229 20.2282 38.6129 20.2687 38.6048 20.31C38.179 22.4752 38.2066 24.3902 38.687 26.0015C39.1187 27.4498 39.8979 28.6231 41.0026 29.489C42.3047 30.5096 43.8766 30.9504 45.3006 30.9504C46.3723 30.9504 47.3603 30.7005 48.0859 30.2602C48.9067 29.7621 49.5943 28.7126 50.1387 27.1369C50.3903 27.4515 50.6287 27.7738 50.8535 28.1038C51.7649 29.4414 52.4606 30.9157 52.9214 32.4854C53.192 33.4074 53.8637 34.1328 54.7181 34.4263L57.1758 35.2697C57.8207 35.4911 58.2539 36.127 58.2539 36.8525V41.2187C58.2539 41.9442 57.8207 42.5801 57.1758 42.8015L53.2161 44.1604C52.5826 44.3779 52.0465 44.8444 51.7065 45.4739C50.1509 48.3544 47.705 50.7381 44.4366 52.5588C44.059 52.7693 43.7974 53.1459 43.7187 53.5921L42.4505 60.7868C42.4154 60.9851 42.2534 61.1288 42.065 61.1288H37.9416C37.7532 61.1288 37.5912 60.985 37.5561 60.7868L36.8537 56.8106C36.7154 56.0283 36.0306 55.5086 35.2935 55.6282C33.5173 55.916 31.687 56.0618 29.8539 56.0618C28.49 56.0618 27.1437 55.9803 25.8519 55.8195C25.1377 55.7315 24.4723 56.2531 24.3388 57.0087L23.6713 60.7868C23.6362 60.9851 23.4742 61.1288 23.2859 61.1288H19.1624C18.9741 61.1288 18.812 60.985 18.7765 60.7838L17.5554 53.9885C17.4768 53.5507 17.2201 53.1784 16.8509 52.9671C11.2793 49.7804 8.33438 44.4563 8.33438 37.5708C8.33438 34.0919 9.04477 31.0157 10.4457 28.4272C11.7531 26.0116 13.6625 24.0144 16.121 22.4908C16.5384 22.232 16.6811 21.6598 16.4396 21.2124C16.1982 20.7652 15.6641 20.6126 15.2466 20.871C10.4795 23.8256 7.6043 28.3838 6.8127 34.1731V34.173C6.72867 34.1649 6.64453 34.1571 6.56074 34.1478C6.57598 33.5231 6.47051 32.8929 6.24082 32.2811C5.73422 30.9319 4.69359 29.9581 3.58957 29.8003C2.71957 29.6755 1.89164 30.0712 1.31707 30.8846C0.483984 32.0641 0.619805 32.9974 0.880313 33.5727C1.32012 34.5437 2.45063 35.2304 4.32668 35.6622C4.27512 35.745 4.2184 35.8281 4.15629 35.9116C3.04781 37.4011 1.74187 37.7304 0.893906 37.7614C0.3975 37.7794 0 38.2064 0 38.7386V38.7431C0 39.2681 0.386602 39.6962 0.876094 39.7202C0.938789 39.7233 1.0043 39.725 1.0725 39.725C2.14547 39.725 3.86754 39.301 5.52199 37.0783C5.7832 36.7275 5.99602 36.3573 6.15961 35.9749C6.32438 35.9948 6.4827 36.0119 6.63434 36.027C6.63434 36.0266 6.63434 36.0263 6.63445 36.026C6.60469 36.533 6.58816 37.0474 6.58816 37.5708C6.58816 41.4666 7.455 44.9401 9.16441 47.8953C10.7406 50.6198 12.9973 52.8507 15.874 54.5284L17.0611 61.1346C17.252 62.2154 18.1357 62.9999 19.1624 62.9999H23.2859C24.3125 62.9999 25.1962 62.2154 25.3871 61.1346L25.9907 57.7185C27.2441 57.8608 28.5418 57.9328 29.8538 57.9328C31.6537 57.9328 33.4516 57.7985 35.2038 57.5333L35.84 61.1349C36.0311 62.2157 36.9148 63 37.9413 63H42.0648C43.0915 63 43.9752 62.2155 44.1662 61.1344L45.401 54.1295C48.8895 52.1531 51.5189 49.5569 53.2179 46.4109C53.3404 46.1842 53.5289 46.0178 53.7487 45.9424L57.7083 44.5835C59.079 44.1128 60 42.7607 60 41.2185V36.8523C60 35.3102 59.079 33.9581 57.7083 33.4876ZM49.3685 22.3688C49.0324 25.4481 48.1309 28.0823 47.225 28.632C46.1954 29.2569 43.8183 29.3775 42.0335 27.9787C40.2466 26.5783 39.6519 24.0599 40.3134 20.6957C40.3134 20.6956 40.3134 20.6956 40.3134 20.6956C40.3799 20.3577 40.6039 20.0654 40.9127 19.914C45.2843 17.77 47.8046 17.0688 48.741 17.0688C48.8823 17.0688 48.9875 17.0848 49.0576 17.1141C49.3389 17.4353 49.7078 19.261 49.3685 22.3688ZM2.45168 32.7557C2.36133 32.5561 2.57461 32.2052 2.70984 32.0136C2.92418 31.7102 3.12164 31.6482 3.27082 31.6482C3.30234 31.6482 3.33176 31.651 3.35871 31.6549C3.7602 31.7123 4.3227 32.1856 4.6207 32.9792C4.6909 33.1661 4.78207 33.4756 4.8034 33.8615C3.59461 33.5932 2.65547 33.2064 2.45168 32.7557Z"/>
</mask>
<path d="M57.7083 33.4876L55.2506 32.6441C54.9359 32.536 54.6878 32.2668 54.5871 31.9239C54.0691 30.1595 53.2875 28.503 52.2639 27.0004C51.7973 26.3155 51.2786 25.6615 50.7118 25.0388C51.0744 23.3347 51.2715 21.406 51.246 19.7398C51.2094 17.3561 50.7648 15.958 49.8868 15.4653C49.414 15.1997 47.9749 14.3926 40.1858 18.2127C40.0014 18.3031 39.8291 18.4145 39.6696 18.5421C39.1445 18.3909 38.6078 18.251 38.0678 18.1255C38.0027 18.1103 37.9357 18.0969 37.8702 18.082C38.5014 16.6048 38.8699 15.0003 38.9392 13.3439C38.9607 12.8277 38.5877 12.3905 38.1059 12.3675C37.6253 12.3419 37.2159 12.7439 37.1945 13.2602C37.0807 15.9836 36.0263 18.5461 34.2255 20.4755C33.1497 21.6282 31.8899 22.4656 30.5473 22.9929C28.2189 22.6429 25.8472 22.6429 23.5188 22.9929C22.1761 22.4656 20.9164 21.6282 19.8405 20.4755C17.9194 18.4172 16.8613 15.6804 16.8613 12.7694C16.8613 9.85826 17.9194 7.12165 19.8405 5.06329C21.7617 3.0048 24.3162 1.87116 27.033 1.87116C29.7499 1.87116 32.3044 3.0048 34.2255 5.06329C34.9976 5.89045 35.6355 6.83438 36.1218 7.86858C36.3387 8.33012 36.8638 8.51595 37.2945 8.28342C37.7252 8.05114 37.8986 7.48852 37.6816 7.02711C37.1118 5.81436 36.3645 4.70859 35.4606 3.74006C33.2095 1.32825 30.2166 0 27.0332 0C23.8498 0 20.8568 1.32825 18.6057 3.74006C16.3547 6.15198 15.115 9.35855 15.115 12.7693C15.115 16.18 16.3547 19.3867 18.6057 21.7985C19.2551 22.4942 19.9615 23.0925 20.7087 23.5937C20.7089 23.5937 20.7091 23.5936 20.7094 23.5936C20.1664 23.7447 19.6276 23.9145 19.0948 24.1053C18.6374 24.2692 18.3906 24.7991 18.5435 25.2893C18.6963 25.7794 19.1912 26.0438 19.6485 25.8801C24.4105 24.1744 29.6558 24.1744 34.4179 25.8801C34.5097 25.913 34.603 25.9285 34.6948 25.9285C35.06 25.9285 35.4006 25.6809 35.5228 25.2893C35.6757 24.7993 35.4289 24.2692 34.9716 24.1053C34.4387 23.9145 33.8999 23.7446 33.357 23.5936C33.3572 23.5936 33.3574 23.5937 33.3577 23.5937C34.105 23.0925 34.8112 22.4942 35.4606 21.7985C36.035 21.183 36.5421 20.5109 36.9824 19.7966C37.2231 19.8467 37.462 19.8992 37.6975 19.954C38.0111 20.0269 38.3232 20.1052 38.6326 20.1875C38.6229 20.2282 38.6129 20.2687 38.6048 20.31C38.179 22.4752 38.2066 24.3902 38.687 26.0015C39.1187 27.4498 39.8979 28.6231 41.0026 29.489C42.3047 30.5096 43.8766 30.9504 45.3006 30.9504C46.3723 30.9504 47.3603 30.7005 48.0859 30.2602C48.9067 29.7621 49.5943 28.7126 50.1387 27.1369C50.3903 27.4515 50.6287 27.7738 50.8535 28.1038C51.7649 29.4414 52.4606 30.9157 52.9214 32.4854C53.192 33.4074 53.8637 34.1328 54.7181 34.4263L57.1758 35.2697C57.8207 35.4911 58.2539 36.127 58.2539 36.8525V41.2187C58.2539 41.9442 57.8207 42.5801 57.1758 42.8015L53.2161 44.1604C52.5826 44.3779 52.0465 44.8444 51.7065 45.4739C50.1509 48.3544 47.705 50.7381 44.4366 52.5588C44.059 52.7693 43.7974 53.1459 43.7187 53.5921L42.4505 60.7868C42.4154 60.9851 42.2534 61.1288 42.065 61.1288H37.9416C37.7532 61.1288 37.5912 60.985 37.5561 60.7868L36.8537 56.8106C36.7154 56.0283 36.0306 55.5086 35.2935 55.6282C33.5173 55.916 31.687 56.0618 29.8539 56.0618C28.49 56.0618 27.1437 55.9803 25.8519 55.8195C25.1377 55.7315 24.4723 56.2531 24.3388 57.0087L23.6713 60.7868C23.6362 60.9851 23.4742 61.1288 23.2859 61.1288H19.1624C18.9741 61.1288 18.812 60.985 18.7765 60.7838L17.5554 53.9885C17.4768 53.5507 17.2201 53.1784 16.8509 52.9671C11.2793 49.7804 8.33438 44.4563 8.33438 37.5708C8.33438 34.0919 9.04477 31.0157 10.4457 28.4272C11.7531 26.0116 13.6625 24.0144 16.121 22.4908C16.5384 22.232 16.6811 21.6598 16.4396 21.2124C16.1982 20.7652 15.6641 20.6126 15.2466 20.871C10.4795 23.8256 7.6043 28.3838 6.8127 34.1731V34.173C6.72867 34.1649 6.64453 34.1571 6.56074 34.1478C6.57598 33.5231 6.47051 32.8929 6.24082 32.2811C5.73422 30.9319 4.69359 29.9581 3.58957 29.8003C2.71957 29.6755 1.89164 30.0712 1.31707 30.8846C0.483984 32.0641 0.619805 32.9974 0.880313 33.5727C1.32012 34.5437 2.45063 35.2304 4.32668 35.6622C4.27512 35.745 4.2184 35.8281 4.15629 35.9116C3.04781 37.4011 1.74187 37.7304 0.893906 37.7614C0.3975 37.7794 0 38.2064 0 38.7386V38.7431C0 39.2681 0.386602 39.6962 0.876094 39.7202C0.938789 39.7233 1.0043 39.725 1.0725 39.725C2.14547 39.725 3.86754 39.301 5.52199 37.0783C5.7832 36.7275 5.99602 36.3573 6.15961 35.9749C6.32438 35.9948 6.4827 36.0119 6.63434 36.027C6.63434 36.0266 6.63434 36.0263 6.63445 36.026C6.60469 36.533 6.58816 37.0474 6.58816 37.5708C6.58816 41.4666 7.455 44.9401 9.16441 47.8953C10.7406 50.6198 12.9973 52.8507 15.874 54.5284L17.0611 61.1346C17.252 62.2154 18.1357 62.9999 19.1624 62.9999H23.2859C24.3125 62.9999 25.1962 62.2154 25.3871 61.1346L25.9907 57.7185C27.2441 57.8608 28.5418 57.9328 29.8538 57.9328C31.6537 57.9328 33.4516 57.7985 35.2038 57.5333L35.84 61.1349C36.0311 62.2157 36.9148 63 37.9413 63H42.0648C43.0915 63 43.9752 62.2155 44.1662 61.1344L45.401 54.1295C48.8895 52.1531 51.5189 49.5569 53.2179 46.4109C53.3404 46.1842 53.5289 46.0178 53.7487 45.9424L57.7083 44.5835C59.079 44.1128 60 42.7607 60 41.2185V36.8523C60 35.3102 59.079 33.9581 57.7083 33.4876ZM49.3685 22.3688C49.0324 25.4481 48.1309 28.0823 47.225 28.632C46.1954 29.2569 43.8183 29.3775 42.0335 27.9787C40.2466 26.5783 39.6519 24.0599 40.3134 20.6957C40.3134 20.6956 40.3134 20.6956 40.3134 20.6956C40.3799 20.3577 40.6039 20.0654 40.9127 19.914C45.2843 17.77 47.8046 17.0688 48.741 17.0688C48.8823 17.0688 48.9875 17.0848 49.0576 17.1141C49.3389 17.4353 49.7078 19.261 49.3685 22.3688ZM2.45168 32.7557C2.36133 32.5561 2.57461 32.2052 2.70984 32.0136C2.92418 31.7102 3.12164 31.6482 3.27082 31.6482C3.30234 31.6482 3.33176 31.651 3.35871 31.6549C3.7602 31.7123 4.3227 32.1856 4.6207 32.9792C4.6909 33.1661 4.78207 33.4756 4.8034 33.8615C3.59461 33.5932 2.65547 33.2064 2.45168 32.7557Z" fill="black" stroke="black" stroke-width="4" mask="url(#path-2-inside-1)"/>
<path d="M27.8811 11.6973V8.34944C28.9587 8.43193 29.359 8.95964 29.7283 8.95964C30.1902 8.95964 30.4057 8.33299 30.4057 8.01961C30.4057 7.2114 28.9278 6.86512 27.8811 6.8321V6.38663C27.8811 6.18875 27.6501 6.00732 27.4193 6.00732C27.1575 6.00732 26.9728 6.18875 26.9728 6.38663V6.86487C25.5104 7.02985 24.048 7.8545 24.048 9.93257C24.048 12.0437 25.5874 12.6374 26.9728 13.1651V17.0409C25.4026 16.909 24.987 15.7545 24.479 15.7545C24.0942 15.7545 23.771 16.2988 23.771 16.6946C23.771 17.5027 25.064 18.6077 26.9728 18.6407V19.152C26.9728 19.3499 27.1576 19.5313 27.4193 19.5313C27.6503 19.5313 27.8811 19.3499 27.8811 19.152V18.5913C29.5437 18.3438 30.6827 17.2223 30.6827 15.1937C30.6827 12.9508 29.2203 12.225 27.8811 11.6973ZM27.0651 11.384C26.2493 11.0542 25.5874 10.7079 25.5874 9.76785C25.5874 8.91017 26.2031 8.49785 27.0651 8.38246V11.384ZM27.7887 17.0079V13.528C28.5429 13.8743 29.1432 14.3361 29.1432 15.375C29.1432 16.3153 28.6199 16.843 27.7887 17.0079Z" fill="url(#paint0_linear)"/>
<defs>
<linearGradient id="paint0_linear" x1="23.771" y1="12.7862" x2="30.6827" y2="12.7862" gradientUnits="userSpaceOnUse">
<stop stop-color="#0EC1CC"/>
<stop offset="0.476099" stop-color="#3A75D9"/>
<stop offset="1" stop-color="#7427E6"/>
</linearGradient>
</defs>
</svg>
