<?xml version="1.0" encoding="utf-8"?><svg viewBox="0 0 52 52" xmlns="http://www.w3.org/2000/svg" xmlns:xlink="http://www.w3.org/1999/xlink"><style>:root>svg{display:none}:root>svg:target{display:block}</style><svg fill="none" viewBox="-10 -10 50 48" id="icon-book" xmlns="http://www.w3.org/2000/svg"><path d="M15 28H8.5c-.276 0-.5-.209-.5-.467v-3.266H.5c-.276 0-.5-.21-.5-.467V.467C0 .209.224 0 .5 0H15c.276 0 .5.209.5.467v27.066c0 .258-.224.467-.5.467zm-.5-24.267H9v.934h5.5v-.934zM1 21h7V7H1v14zm13.5 1.867H9v1.4h5.5v-1.4zM1 6.067h7v-1.4H1v1.4zM9 5.6v16.333h5.5V5.6H9zm5.5 21.467V25.2H9v1.867h5.5zM8 23.333v-1.4H1v1.4h7zm-7-19.6h7v-2.8H1v2.8zm8-2.8V2.8h5.5V.933H9z" fill="#288DD5"/><path d="M29.984 2.45l-6 21.468a.47.47 0 01-.232.285.53.53 0 01-.38.048l-7.5-1.867c-.266-.066-.425-.32-.356-.568l6-21.467a.47.47 0 01.233-.285.53.53 0 01.38-.047l7.5 1.867c.265.066.424.319.355.567zM17.406 18.753l6.534 1.626.235-.84-6.533-1.629-.236.843zm7.022-.12l2.9-10.382-6.532-1.627-2.9 10.383 6.532 1.626zm3.154-11.286l.512-1.831-6.534-1.626-.51 1.83 6.532 1.627zm-4.439 15.882l.545-1.948-6.534-1.625-.544 1.947 6.533 1.626zm-.786-22.19l-.544 1.949 6.534 1.626.543-1.947-6.533-1.628zM6.5 19.6h-4c-.276 0-.5-.209-.5-.467V15.4c0-.258.224-.467.5-.467h4c.276 0 .5.21.5.467v3.733c0 .258-.224.467-.5.467zM6 15.867H3v2.8h3v-2.8z" fill="#288DD5"/></svg><svg fill="none" viewBox="-10.94 -10.94 55.88 56.88" id="icon-calendar" xmlns="http://www.w3.org/2000/svg"><path d="M9.563 17.021H7.437c-.55 0-.996.46-.996 1.026 0 .566.446 1.025.997 1.025h2.125c.55 0 .996-.459.996-1.025 0-.566-.446-1.026-.996-1.026zM9.563 21.396H7.437c-.55 0-.996.46-.996 1.026 0 .566.446 1.025.997 1.025h2.125c.55 0 .996-.459.996-1.025 0-.566-.446-1.026-.996-1.026zM9.563 25.771H7.437c-.55 0-.996.46-.996 1.026 0 .566.446 1.025.997 1.025h2.125c.55 0 .996-.459.996-1.025 0-.566-.446-1.026-.996-1.026zM18.063 17.021h-2.125c-.55 0-.997.46-.997 1.026 0 .566.446 1.025.996 1.025h2.126c.55 0 .996-.459.996-1.025 0-.566-.446-1.026-.997-1.026zM18.063 21.396h-2.125c-.55 0-.997.46-.997 1.026 0 .566.446 1.025.996 1.025h2.126c.55 0 .996-.459.996-1.025 0-.566-.446-1.026-.997-1.026zM18.063 25.771h-2.125c-.55 0-.997.46-.997 1.026 0 .566.446 1.025.996 1.025h2.126c.55 0 .996-.459.996-1.025 0-.566-.446-1.026-.997-1.026zM26.563 17.021h-2.125c-.55 0-.997.46-.997 1.026 0 .566.446 1.025.997 1.025h2.125c.55 0 .996-.459.996-1.025 0-.566-.446-1.026-.997-1.026zM26.563 21.396h-2.125c-.55 0-.997.46-.997 1.026 0 .566.446 1.025.997 1.025h2.125c.55 0 .996-.459.996-1.025 0-.566-.446-1.026-.997-1.026zM26.563 25.771h-2.125c-.55 0-.997.46-.997 1.026 0 .566.446 1.025.997 1.025h2.125c.55 0 .996-.459.996-1.025 0-.566-.446-1.026-.997-1.026z" fill="#288DD5"/><path d="M31.012 4.443h-2.39V2.734c0-.566-.447-1.025-.997-1.025s-.996.46-.996 1.025v1.71h-8.633v-1.71c0-.566-.446-1.025-.996-1.025s-.996.46-.996 1.025v1.71H7.37v-1.71c0-.566-.446-1.025-.996-1.025s-.996.46-.996 1.025v1.71h-2.39C1.34 4.443 0 5.823 0 7.52v22.695c0 1.696 1.34 3.076 2.988 3.076h28.024c1.648 0 2.988-1.38 2.988-3.076V7.52c0-1.697-1.34-3.077-2.988-3.077zM1.992 7.52c0-.566.447-1.026.996-1.026h2.39v1.71c0 .565.447 1.025.997 1.025s.996-.46.996-1.026V6.494h8.633v1.71c0 .565.446 1.025.996 1.025s.996-.46.996-1.026V6.494h8.633v1.71c0 .565.446 1.025.996 1.025s.996-.46.996-1.026V6.494h2.39c.55 0 .997.46.997 1.026v4.033H1.992V7.52zm29.02 23.72H2.988c-.549 0-.996-.46-.996-1.025V13.604h30.016v16.61c0 .566-.447 1.026-.996 1.026z" fill="#288DD5"/></svg><svg fill="none" viewBox="-10 -10 50 50" id="icon-clock" xmlns="http://www.w3.org/2000/svg"><path d="M15 30C6.716 30 0 23.284 0 15 0 6.716 6.716 0 15 0c8.284 0 15 6.716 15 15-.01 8.28-6.72 14.99-15 15zm0-29C7.268 1 1 7.268 1 15s6.268 14 14 14 14-6.268 14-14c-.009-7.728-6.272-13.991-14-14z" fill="#288DD5"/><path d="M15 27.5C8.097 27.5 2.5 21.904 2.5 15 2.5 8.098 8.097 2.5 15 2.5c6.904 0 12.5 5.597 12.5 12.5-.007 6.9-5.6 12.493-12.5 12.5zm0-24C8.65 3.5 3.5 8.65 3.5 15c0 6.352 5.149 11.5 11.5 11.5 6.352 0 11.5-5.148 11.5-11.5C26.493 8.652 21.35 3.508 15 3.5z" fill="#288DD5"/><path d="M15.5 25h-1v-1h1v1zM15.5 6h-1V5h1v1zM10.432 23.91l-.866-.5.5-.866.865.5-.5.866zM19.93 7.458l-.866-.5.5-.865.866.5-.5.865zM6.59 20.433l-.5-.866.865-.5.5.866-.866.5zM23.042 10.93l-.5-.865.866-.5.5.866-.866.5zM6 15.5H5v-1h1v1zM25 15.5h-1v-1h1v1zM6.956 10.933l-.866-.5.5-.866.866.5-.5.866zM23.408 20.433l-.866-.5.5-.866.866.5-.5.866zM10.064 7.456l-.5-.865.865-.5.5.865-.865.5zM19.566 23.909l-.5-.865.866-.5.5.865-.866.5zM14.5 23v-7.717l-4.758-2.855.515-.857 5 3a.5.5 0 01.243.428v8h-1z" fill="#288DD5"/></svg><svg fill="none" viewBox="-10.94 -10.94 56.88 56.88" id="icon-gift" xmlns="http://www.w3.org/2000/svg"><g clip-path="url(#dclip0)" fill="#288DD5"><path d="M29.896 35H5.104a2.19 2.19 0 01-2.188-2.188V18.23a.73.73 0 01.73-.729h27.708a.73.73 0 01.73.73v14.582A2.19 2.19 0 0129.895 35zM4.375 18.958v13.855c0 .4.328.729.729.729h24.792c.4 0 .729-.328.729-.73V18.959H4.375z"/><path d="M32.813 18.959H2.186A2.19 2.19 0 010 16.77v-4.375a2.19 2.19 0 012.188-2.188h30.625A2.19 2.19 0 0135 12.397v4.375a2.19 2.19 0 01-2.188 2.188zM2.186 11.667a.731.731 0 00-.729.729v4.375c0 .401.328.73.73.73h30.625c.4 0 .729-.329.729-.73v-4.375a.731.731 0 00-.73-.73H2.189z"/><path d="M17.5 11.667a.723.723 0 01-.551-.253.722.722 0 01-.17-.579C16.793 10.726 18.424 0 26.978 0c3.768 0 5.106 2.036 5.106 3.779 0 3.275-4.525 7.888-14.585 7.888zm9.48-10.209c-5.997 0-8.042 6.395-8.589 8.736 7.99-.248 12.236-3.815 12.236-6.415 0-.648-.273-1.182-.808-1.583-.642-.482-1.625-.738-2.84-.738z"/><path d="M17.501 11.667c-10.06 0-14.585-4.613-14.585-7.888 0-1.1.495-2.077 1.39-2.75C5.203.357 6.488 0 8.022 0c8.555 0 10.185 10.726 10.201 10.835a.72.72 0 01-.17.58.723.723 0 01-.552.252zM8.022 1.458c-2.25 0-3.647.888-3.647 2.32 0 2.602 4.248 6.17 12.243 6.417-.53-2.355-2.523-8.737-8.596-8.737z"/><path d="M17.5 35a.73.73 0 01-.729-.729V10.938a.73.73 0 011.458 0V34.27a.73.73 0 01-.729.73z"/></g><defs><clipPath id="dclip0"><path fill="#fff" d="M0 0h35v35H0z"/></clipPath></defs></svg><svg fill="none" viewBox="-20 -20 104 101" id="icon-idea" xmlns="http://www.w3.org/2000/svg"><g clip-path="url(#eclip0)" fill="#7427E6"><path d="M21.665 11.979c-1.928.693-3.31 2.455-3.31 4.53 0 .8.224 1.544.585 2.21-1.53.56-2.624 1.965-2.624 3.618 0 1.653 1.094 3.057 2.624 3.617-.361.666-.585 1.41-.585 2.21 0 2.076 1.382 3.837 3.31 4.53a3.67 3.67 0 00-.25 1.296c0 2.142 1.829 3.884 4.078 3.884.508 0 .99-.1 1.438-.26.66 1.298 2.046 2.203 3.66 2.203 2.25 0 4.08-1.742 4.08-3.885V8.741c0-2.142-1.83-3.885-4.08-3.885-1.614 0-3 .906-3.66 2.204a4.238 4.238 0 00-1.438-.261c-2.25 0-4.079 1.742-4.079 3.884 0 .457.098.889.251 1.296zm3.828-3.238c1.125 0 2.04.871 2.04 1.942h2.039c0-.933-.362-1.78-.94-2.45.236-.823 1.02-1.434 1.96-1.434 1.124 0 2.039.87 2.039 1.942v27.191c0 1.071-.915 1.942-2.04 1.942-.939 0-1.723-.61-1.96-1.434.579-.67.94-1.516.94-2.45h-2.039c0 1.071-.914 1.942-2.039 1.942s-2.04-.87-2.04-1.942c0-1.071.915-1.942 2.04-1.942v-1.943c-.993 0-1.892.354-2.6.918-1.42-.252-2.498-1.436-2.498-2.86 0-1.606 1.372-2.913 3.059-2.913 1.686 0 3.059 1.307 3.059 2.913h2.039c0-2.677-2.287-4.855-5.098-4.855-1.152 0-2.205.38-3.06.996v-.025c-1.124 0-2.039-.871-2.039-1.942 0-1.072.915-1.943 2.04-1.943v-.025a5.208 5.208 0 003.059.997c2.811 0 5.098-2.178 5.098-4.856h-2.04c0 1.606-1.372 2.913-3.058 2.913-1.687 0-3.06-1.307-3.06-2.913 0-1.424 1.08-2.607 2.499-2.859a4.16 4.16 0 002.6.917v-1.943c-1.125 0-2.04-.87-2.04-1.942 0-1.071.915-1.942 2.04-1.942zM45.887 6.799c-.508 0-.99.1-1.438.261-.661-1.298-2.047-2.204-3.66-2.204-2.25 0-4.08 1.743-4.08 3.885v27.191c0 2.143 1.83 3.885 4.08 3.885 1.613 0 2.999-.905 3.66-2.204.449.161.93.261 1.438.261 2.249 0 4.078-1.742 4.078-3.884 0-.456-.097-.889-.25-1.295 1.928-.694 3.31-2.455 3.31-4.532 0-.799-.224-1.543-.585-2.209 1.53-.56 2.624-1.964 2.624-3.617S53.97 19.28 52.44 18.72c.361-.667.584-1.41.584-2.21 0-2.076-1.381-3.838-3.31-4.531.154-.407.251-.84.251-1.296 0-2.142-1.829-3.884-4.078-3.884zm5.098 9.71c0 1.607-1.372 2.914-3.06 2.914-1.685 0-3.058-1.307-3.058-2.913h-2.04c0 2.678 2.288 4.855 5.099 4.855 1.152 0 2.205-.379 3.059-.996v.025c1.125 0 2.04.871 2.04 1.943 0 1.07-.915 1.942-2.04 1.942v.025a5.208 5.208 0 00-3.06-.996c-2.81 0-5.097 2.178-5.097 4.855h2.039c0-1.606 1.373-2.913 3.059-2.913 1.687 0 3.059 1.307 3.059 2.913 0 1.424-1.079 2.608-2.498 2.86a4.163 4.163 0 00-2.6-.918v1.943c1.124 0 2.039.87 2.039 1.942 0 1.071-.915 1.942-2.04 1.942-1.124 0-2.039-.87-2.039-1.942h-2.04c0 .934.363 1.78.94 2.45-.236.824-1.02 1.434-1.959 1.434-1.125 0-2.04-.87-2.04-1.942V8.741c0-1.071.915-1.942 2.04-1.942.94 0 1.723.61 1.96 1.434-.578.67-.94 1.517-.94 2.45h2.04c0-1.071.914-1.942 2.039-1.942 1.124 0 2.039.871 2.039 1.942s-.915 1.942-2.04 1.942v1.943c.994 0 1.893-.354 2.601-.917 1.419.252 2.498 1.435 2.498 2.859z"/><path d="M51.746 6.057C46.982 1.792 40.741-.347 34.192.047l.126 1.937c5.985-.354 11.68 1.595 16.032 5.488 4.354 3.897 6.753 9.177 6.753 14.865 0 6.854-3.587 13.21-9.597 17.003a12.153 12.153 0 00-4.607 5.333H28.438a12.352 12.352 0 00-4.63-5.374c-6.193-3.942-9.752-10.525-9.52-17.613l-2.039-.06c-.253 7.761 3.644 14.972 10.426 19.287a10.42 10.42 0 013.527 3.76h-2.749v1.942h3.562c.198.629.356 1.274.436 1.942h-1.958v1.942h2.04v2.914c0 .537.456.97 1.019.97h1.02c0 3.214 2.743 5.828 6.118 5.828 3.374 0 6.118-2.614 6.118-5.827h1.02c.562 0 1.019-.434 1.019-.971v-2.914h2.04v-1.942h-1.968c.072-.667.216-1.314.41-1.942h3.597v-1.942h-2.793a10.199 10.199 0 013.5-3.714c6.58-4.156 10.51-11.116 10.51-18.622 0-6.14-2.697-12.074-7.397-16.28zM35.69 58.268c-2.25 0-4.08-1.742-4.08-3.884h8.158c0 2.142-1.829 3.884-4.078 3.884zm6.118-5.827H29.572V50.5h12.236v1.942zm.072-3.884H29.49a12.66 12.66 0 00-.346-1.942h13.053c-.162.63-.256 1.283-.317 1.942zM11.217 6.799c2.25 0 4.08 1.742 4.08 3.884 0 .537.456.971 1.019.971s1.02-.434 1.02-.97c0-2.143 1.829-3.885 4.078-3.885.563 0 1.02-.434 1.02-.971 0-.537-.457-.971-1.02-.971-2.25 0-4.079-1.743-4.079-3.885 0-.537-.456-.971-1.02-.971-.562 0-1.019.434-1.019.971 0 2.142-1.83 3.885-4.079 3.885-.562 0-1.02.434-1.02.97 0 .538.458.972 1.02.972zm5.099-2.61a6.033 6.033 0 001.72 1.639 6.04 6.04 0 00-1.72 1.638 6.033 6.033 0 00-1.72-1.638 6.027 6.027 0 001.72-1.639zM15.296 16.51c.563 0 1.02-.434 1.02-.971 0-.537-.457-.971-1.02-.971-2.25 0-4.079-1.742-4.079-3.885 0-.537-.456-.97-1.02-.97-.562 0-1.019.434-1.019.97 0 2.143-1.83 3.885-4.079 3.885-.562 0-1.02.434-1.02.97 0 .538.458.972 1.02.972 2.25 0 4.079 1.743 4.079 3.884 0 .538.457.972 1.02.972s1.02-.434 1.02-.971c0-2.142 1.829-3.885 4.078-3.885zm-5.098.667a6.032 6.032 0 00-1.72-1.638 6.04 6.04 0 001.72-1.638 6.046 6.046 0 001.72 1.638 6.04 6.04 0 00-1.72 1.638z"/></g><defs><clipPath id="eclip0"><path fill="#fff" d="M0 0h63.221v60.211H0z"/></clipPath></defs></svg><svg fill="none" viewBox="-10 -10 44 44" id="icon-phone" xmlns="http://www.w3.org/2000/svg"><path d="M22.105 15.802c-1.48 0-2.93-.231-4.305-.684-.67-.232-1.432-.054-1.873.396l-2.724 2.058c-3.127-1.669-5.128-3.668-6.773-6.772l2.002-2.66A1.912 1.912 0 008.9 6.207a13.715 13.715 0 01-.69-4.312C8.21.85 7.36 0 6.317 0H1.895C.85 0 0 .85 0 1.895 0 14.083 9.917 24 22.105 24 23.15 24 24 23.15 24 22.105v-4.408c0-1.045-.85-1.895-1.895-1.895z" fill="#288DD5"/></svg><svg fill="none" viewBox="-10.94 -10.94 56.88 56.88" id="icon-support" xmlns="http://www.w3.org/2000/svg"><g clip-path="url(#gclip0)" fill="#288DD5"><path d="M11.667 0a8.75 8.75 0 00-8.75 8.75v6.417A4.088 4.088 0 007 19.25h.583v-1.167H7a2.92 2.92 0 01-2.917-2.916V8.75a7.583 7.583 0 1115.167 0v6.417a2.92 2.92 0 01-2.917 2.916h-.583v1.167h.583a4.088 4.088 0 004.084-4.083V8.75A8.75 8.75 0 0011.667 0zM4.807 27.492l.427-.672-.985-.625-.427.672a5.815 5.815 0 00.241 6.582v1.55H5.23v-1.75a.583.583 0 00-.128-.364 4.647 4.647 0 01-.295-5.393zM32.084 0H24.5a2.92 2.92 0 00-2.916 2.917V8.75a2.92 2.92 0 002.916 2.917h1.167V14a.583.583 0 00.996.412l2.745-2.745h2.675A2.92 2.92 0 0035 8.75V2.917A2.92 2.92 0 0032.084 0zm1.75 8.75a1.75 1.75 0 01-1.75 1.75h-2.917a.583.583 0 00-.413.17l-1.92 1.922v-1.509a.583.583 0 00-.584-.583H24.5a1.75 1.75 0 01-1.75-1.75V2.917c0-.967.784-1.75 1.75-1.75h7.584c.966 0 1.75.783 1.75 1.75V8.75z"/><path d="M28.583 2.917H24.5v1.166h4.083V2.916zM32.083 2.917H29.75v1.166h2.333V2.916zM32.083 5.25H24.5v1.167h7.583V5.25zM28.583 7.583H24.5V8.75h4.083V7.583zM19.511 26.867l-.426-.672-.985.625.426.672a4.646 4.646 0 01-.295 5.393.583.583 0 00-.127.365V35h1.166v-1.551a5.815 5.815 0 00.241-6.582z"/><path d="M34.417 19.833h-5.25a4.083 4.083 0 00-4.076 3.917l-1.758 3.165V24.5a4.088 4.088 0 00-4.083-4.084h-2.132l-.016-.012-.01.012H15.75a1.167 1.167 0 01-1.167-1.166v-1.373a5.833 5.833 0 002.917-5.044V8.166c0-.966-.241-1.917-.7-2.768a.583.583 0 00-.758-.25L6.168 9.792a.583.583 0 00-.335.528v2.512a5.833 5.833 0 002.917 5.044v1.373c0 .644-.522 1.166-1.167 1.166h-3.5A4.088 4.088 0 000 24.5V35h1.167V24.5a2.92 2.92 0 012.916-2.917H5.94l5.253 7.34c.108.15.282.241.467.243h.008a.583.583 0 00.466-.233l5.542-7.35h1.575a2.92 2.92 0 012.917 2.917v4.666a.583.583 0 001.093.283l2.75-4.95h3.344L23.666 35h1.328l5.69-10.5h.233A4.088 4.088 0 0035 20.417a.583.583 0 00-.583-.583zM7 12.833v-2.142l9.007-4.238c.216.545.326 1.127.326 1.713v4.667a4.667 4.667 0 11-9.333 0zm4.679 14.765l-1.8-2.515h3.696l-1.896 2.515zm2.778-3.682H9.042l-1.67-2.333h.211a2.333 2.333 0 002.334-2.333v-.852c1.139.358 2.36.358 3.5 0v.852a2.333 2.333 0 002.333 2.333h.467l-1.76 2.333zm16.46-.583h-4.609A2.921 2.921 0 0129.167 21h4.608a2.921 2.921 0 01-2.858 2.333z"/></g><defs><clipPath id="gclip0"><path fill="#fff" d="M0 0h35v35H0z"/></clipPath></defs></svg><svg fill="none" viewBox="-20.31 -20.31 105.63 105.63" id="icon-wealth" xmlns="http://www.w3.org/2000/svg"><path d="M13.325 13.815C10.379 6.034 15.78 2.062 18.849 1.049c1.473 7.295-3.069 11.55-5.524 12.766zm0 0c-3.274 6.89-6.66 23.432 4.143 31.7M9.937 27.189c1.227-2.837.933-12.158-3.683-13.982-2.75 4.255-3.192 9.605 3.683 13.982zm0 0c.409-3.04 2.946-9.24 9.82-9.727.205 3.242-1.473 9.727-9.82 9.727zm7.53 18.326c-.817-1.621-4.142-5.423-12.889-3.04 1.842 3.04 6.997 7.903 12.89 3.04zm0 0c4.911 2.431 15.131 8.42 18.569 15.716m-8.594-9.578c-1.841-1.823-6.874-4.133-12.276 1.216 2.865 2.027 9.33 4.62 12.276-1.215zm0 0c1.317-2.634 2.055-8.632-5.524-11.55-1.227 2.635-2.16 6.149 5.524 11.55zM10.87 36.916c-.205-3.04-2.455-9.483-9.82-10.942.204 4.052 2.454 11.915 9.82 10.942zm4.296 6.187c-1.841-1.824-4.173-6.809 1.228-12.158 2.046 3.445 4.665 10.699-1.228 12.158z" stroke="#7427E6"/><path fill="#7427E6" d="M7.801 7.128h1.228v1.216H7.801zM20.077 13.207h1.228v1.216h-1.228zM17.622 27.796h1.228v1.216h-1.228zM20.077 37.523h1.228v1.216h-1.228zM32.353 49.681h1.228v1.216h-1.228zM36.036 63.054h1.228v1.216h-1.228zM2.891 38.739h1.228v1.216H2.891zM12.711 49.681h1.228v1.216h-1.228zM1.663 21.718h1.228v1.216H1.663z"/><path d="M50.982 13.815c2.895-7.781-2.412-11.753-5.427-12.766-1.448 7.295 3.015 11.55 5.427 12.766zm0 0c3.216 6.89 6.543 23.432-4.07 31.7m7.399-18.326c-1.206-2.837-.917-12.158 3.618-13.982 2.701 4.255 3.136 9.605-3.618 13.982zm0 0c-.402-3.04-2.895-9.24-9.649-9.727-.2 3.242 1.448 9.727 9.649 9.727zm-7.4 18.326c.805-1.621 4.07-5.423 12.664-3.04-1.809 3.04-6.874 7.903-12.663 3.04zm0 0c-4.824 2.431-14.864 8.42-18.241 15.716m8.442-9.578c1.81-1.823 6.754-4.133 12.06 1.216-2.813 2.027-9.165 4.62-12.06-1.215zm0 0c-1.293-2.634-2.019-8.632 5.427-11.55 1.207 2.635 2.123 6.149-5.427 11.55zm16.282-14.738c.201-3.04 2.412-9.483 9.648-10.942-.2 4.052-2.412 11.915-9.648 10.942zm-4.221 6.187c1.809-1.824 4.1-6.809-1.206-12.158-2.01 3.445-4.583 10.699 1.206 12.158z" stroke="#7427E6"/><path fill="#7427E6" d="M58.132 7.128h-1.228v1.216h1.228zM47.084 13.207h-1.228v1.216h1.228zM49.54 27.796H48.31v1.216h1.228zM44.629 37.523H43.4v1.216h1.228zM28.67 63.054h-1.228v1.216h1.228zM63.042 38.739h-1.228v1.216h1.228zM53.222 49.68h-1.228v1.217h1.228zM64.27 21.718h-1.228v1.216h1.228z"/></svg></svg>