<?xml version="1.0" encoding="utf-8"?><svg viewBox="0 0 52 52" xmlns="http://www.w3.org/2000/svg" xmlns:xlink="http://www.w3.org/1999/xlink"><style>:root>svg{display:none}:root>svg:target{display:block}</style><svg fill="none" viewBox="-20 -20 104 101" id="icon-idea" xmlns="http://www.w3.org/2000/svg"><g clip-path="url(#aclip0)" fill="#7427E6"><path d="M21.665 11.979c-1.928.693-3.31 2.455-3.31 4.53 0 .8.224 1.544.585 2.21-1.53.56-2.624 1.965-2.624 3.618 0 1.653 1.094 3.057 2.624 3.617-.361.666-.585 1.41-.585 2.21 0 2.076 1.382 3.837 3.31 4.53a3.67 3.67 0 00-.25 1.296c0 2.142 1.829 3.884 4.078 3.884.508 0 .99-.1 1.438-.26.66 1.298 2.046 2.203 3.66 2.203 2.25 0 4.08-1.742 4.08-3.885V8.741c0-2.142-1.83-3.885-4.08-3.885-1.614 0-3 .906-3.66 2.204a4.238 4.238 0 00-1.438-.261c-2.25 0-4.079 1.742-4.079 3.884 0 .457.098.889.251 1.296zm3.828-3.238c1.125 0 2.04.871 2.04 1.942h2.039c0-.933-.362-1.78-.94-2.45.236-.823 1.02-1.434 1.96-1.434 1.124 0 2.039.87 2.039 1.942v27.191c0 1.071-.915 1.942-2.04 1.942-.939 0-1.723-.61-1.96-1.434.579-.67.94-1.516.94-2.45h-2.039c0 1.071-.914 1.942-2.039 1.942s-2.04-.87-2.04-1.942c0-1.071.915-1.942 2.04-1.942v-1.943c-.993 0-1.892.354-2.6.918-1.42-.252-2.498-1.436-2.498-2.86 0-1.606 1.372-2.913 3.059-2.913 1.686 0 3.059 1.307 3.059 2.913h2.039c0-2.677-2.287-4.855-5.098-4.855-1.152 0-2.205.38-3.06.996v-.025c-1.124 0-2.039-.871-2.039-1.942 0-1.072.915-1.943 2.04-1.943v-.025a5.208 5.208 0 003.059.997c2.811 0 5.098-2.178 5.098-4.856h-2.04c0 1.606-1.372 2.913-3.058 2.913-1.687 0-3.06-1.307-3.06-2.913 0-1.424 1.08-2.607 2.499-2.859a4.16 4.16 0 002.6.917v-1.943c-1.125 0-2.04-.87-2.04-1.942 0-1.071.915-1.942 2.04-1.942zM45.887 6.799c-.508 0-.99.1-1.438.261-.661-1.298-2.047-2.204-3.66-2.204-2.25 0-4.08 1.743-4.08 3.885v27.191c0 2.143 1.83 3.885 4.08 3.885 1.613 0 2.999-.905 3.66-2.204.449.161.93.261 1.438.261 2.249 0 4.078-1.742 4.078-3.884 0-.456-.097-.889-.25-1.295 1.928-.694 3.31-2.455 3.31-4.532 0-.799-.224-1.543-.585-2.209 1.53-.56 2.624-1.964 2.624-3.617S53.97 19.28 52.44 18.72c.361-.667.584-1.41.584-2.21 0-2.076-1.381-3.838-3.31-4.531.154-.407.251-.84.251-1.296 0-2.142-1.829-3.884-4.078-3.884zm5.098 9.71c0 1.607-1.372 2.914-3.06 2.914-1.685 0-3.058-1.307-3.058-2.913h-2.04c0 2.678 2.288 4.855 5.099 4.855 1.152 0 2.205-.379 3.059-.996v.025c1.125 0 2.04.871 2.04 1.943 0 1.07-.915 1.942-2.04 1.942v.025a5.208 5.208 0 00-3.06-.996c-2.81 0-5.097 2.178-5.097 4.855h2.039c0-1.606 1.373-2.913 3.059-2.913 1.687 0 3.059 1.307 3.059 2.913 0 1.424-1.079 2.608-2.498 2.86a4.163 4.163 0 00-2.6-.918v1.943c1.124 0 2.039.87 2.039 1.942 0 1.071-.915 1.942-2.04 1.942-1.124 0-2.039-.87-2.039-1.942h-2.04c0 .934.363 1.78.94 2.45-.236.824-1.02 1.434-1.959 1.434-1.125 0-2.04-.87-2.04-1.942V8.741c0-1.071.915-1.942 2.04-1.942.94 0 1.723.61 1.96 1.434-.578.67-.94 1.517-.94 2.45h2.04c0-1.071.914-1.942 2.039-1.942 1.124 0 2.039.871 2.039 1.942s-.915 1.942-2.04 1.942v1.943c.994 0 1.893-.354 2.601-.917 1.419.252 2.498 1.435 2.498 2.859z"/><path d="M51.746 6.057C46.982 1.792 40.741-.347 34.192.047l.126 1.937c5.985-.354 11.68 1.595 16.032 5.488 4.354 3.897 6.753 9.177 6.753 14.865 0 6.854-3.587 13.21-9.597 17.003a12.153 12.153 0 00-4.607 5.333H28.438a12.352 12.352 0 00-4.63-5.374c-6.193-3.942-9.752-10.525-9.52-17.613l-2.039-.06c-.253 7.761 3.644 14.972 10.426 19.287a10.42 10.42 0 013.527 3.76h-2.749v1.942h3.562c.198.629.356 1.274.436 1.942h-1.958v1.942h2.04v2.914c0 .537.456.97 1.019.97h1.02c0 3.214 2.743 5.828 6.118 5.828 3.374 0 6.118-2.614 6.118-5.827h1.02c.562 0 1.019-.434 1.019-.971v-2.914h2.04v-1.942h-1.968c.072-.667.216-1.314.41-1.942h3.597v-1.942h-2.793a10.199 10.199 0 013.5-3.714c6.58-4.156 10.51-11.116 10.51-18.622 0-6.14-2.697-12.074-7.397-16.28zM35.69 58.268c-2.25 0-4.08-1.742-4.08-3.884h8.158c0 2.142-1.829 3.884-4.078 3.884zm6.118-5.827H29.572V50.5h12.236v1.942zm.072-3.884H29.49a12.66 12.66 0 00-.346-1.942h13.053c-.162.63-.256 1.283-.317 1.942zM11.217 6.799c2.25 0 4.08 1.742 4.08 3.884 0 .537.456.971 1.019.971s1.02-.434 1.02-.97c0-2.143 1.829-3.885 4.078-3.885.563 0 1.02-.434 1.02-.971 0-.537-.457-.971-1.02-.971-2.25 0-4.079-1.743-4.079-3.885 0-.537-.456-.971-1.02-.971-.562 0-1.019.434-1.019.971 0 2.142-1.83 3.885-4.079 3.885-.562 0-1.02.434-1.02.97 0 .538.458.972 1.02.972zm5.099-2.61a6.033 6.033 0 001.72 1.639 6.04 6.04 0 00-1.72 1.638 6.033 6.033 0 00-1.72-1.638 6.027 6.027 0 001.72-1.639zM15.296 16.51c.563 0 1.02-.434 1.02-.971 0-.537-.457-.971-1.02-.971-2.25 0-4.079-1.742-4.079-3.885 0-.537-.456-.97-1.02-.97-.562 0-1.019.434-1.019.97 0 2.143-1.83 3.885-4.079 3.885-.562 0-1.02.434-1.02.97 0 .538.458.972 1.02.972 2.25 0 4.079 1.743 4.079 3.884 0 .538.457.972 1.02.972s1.02-.434 1.02-.971c0-2.142 1.829-3.885 4.078-3.885zm-5.098.667a6.032 6.032 0 00-1.72-1.638 6.04 6.04 0 001.72-1.638 6.046 6.046 0 001.72 1.638 6.04 6.04 0 00-1.72 1.638z"/></g><defs><clipPath id="aclip0"><path fill="#fff" d="M0 0h63.221v60.211H0z"/></clipPath></defs></svg><svg fill="none" viewBox="-20.31 -20.31 105.63 105.63" id="icon-wealth" xmlns="http://www.w3.org/2000/svg"><path d="M13.325 13.815C10.379 6.034 15.78 2.062 18.849 1.049c1.473 7.295-3.069 11.55-5.524 12.766zm0 0c-3.274 6.89-6.66 23.432 4.143 31.7M9.937 27.189c1.227-2.837.933-12.158-3.683-13.982-2.75 4.255-3.192 9.605 3.683 13.982zm0 0c.409-3.04 2.946-9.24 9.82-9.727.205 3.242-1.473 9.727-9.82 9.727zm7.53 18.326c-.817-1.621-4.142-5.423-12.889-3.04 1.842 3.04 6.997 7.903 12.89 3.04zm0 0c4.911 2.431 15.131 8.42 18.569 15.716m-8.594-9.578c-1.841-1.823-6.874-4.133-12.276 1.216 2.865 2.027 9.33 4.62 12.276-1.215zm0 0c1.317-2.634 2.055-8.632-5.524-11.55-1.227 2.635-2.16 6.149 5.524 11.55zM10.87 36.916c-.205-3.04-2.455-9.483-9.82-10.942.204 4.052 2.454 11.915 9.82 10.942zm4.296 6.187c-1.841-1.824-4.173-6.809 1.228-12.158 2.046 3.445 4.665 10.699-1.228 12.158z" stroke="#7427E6"/><path fill="#7427E6" d="M7.801 7.128h1.228v1.216H7.801zM20.077 13.207h1.228v1.216h-1.228zM17.622 27.796h1.228v1.216h-1.228zM20.077 37.523h1.228v1.216h-1.228zM32.353 49.681h1.228v1.216h-1.228zM36.036 63.054h1.228v1.216h-1.228zM2.891 38.739h1.228v1.216H2.891zM12.711 49.681h1.228v1.216h-1.228zM1.663 21.718h1.228v1.216H1.663z"/><path d="M50.982 13.815c2.895-7.781-2.412-11.753-5.427-12.766-1.448 7.295 3.015 11.55 5.427 12.766zm0 0c3.216 6.89 6.543 23.432-4.07 31.7m7.399-18.326c-1.206-2.837-.917-12.158 3.618-13.982 2.701 4.255 3.136 9.605-3.618 13.982zm0 0c-.402-3.04-2.895-9.24-9.649-9.727-.2 3.242 1.448 9.727 9.649 9.727zm-7.4 18.326c.805-1.621 4.07-5.423 12.664-3.04-1.809 3.04-6.874 7.903-12.663 3.04zm0 0c-4.824 2.431-14.864 8.42-18.241 15.716m8.442-9.578c1.81-1.823 6.754-4.133 12.06 1.216-2.813 2.027-9.165 4.62-12.06-1.215zm0 0c-1.293-2.634-2.019-8.632 5.427-11.55 1.207 2.635 2.123 6.149-5.427 11.55zm16.282-14.738c.201-3.04 2.412-9.483 9.648-10.942-.2 4.052-2.412 11.915-9.648 10.942zm-4.221 6.187c1.809-1.824 4.1-6.809-1.206-12.158-2.01 3.445-4.583 10.699 1.206 12.158z" stroke="#7427E6"/><path fill="#7427E6" d="M58.132 7.128h-1.228v1.216h1.228zM47.084 13.207h-1.228v1.216h1.228zM49.54 27.796H48.31v1.216h1.228zM44.629 37.523H43.4v1.216h1.228zM28.67 63.054h-1.228v1.216h1.228zM63.042 38.739h-1.228v1.216h1.228zM53.222 49.68h-1.228v1.217h1.228zM64.27 21.718h-1.228v1.216h1.228z"/></svg></svg>