<svg width="28" height="21" viewBox="0 0 28 21" fill="none" xmlns="http://www.w3.org/2000/svg">
<path d="M23.8037 9C25.7378 9 27.3043 7.32188 27.3043 5.25C27.3043 3.17812 25.7378 1.5 23.8037 1.5C21.8697 1.5 20.3032 3.17812 20.3032 5.25C20.3032 7.32188 21.8697 9 23.8037 9ZM23.8037 3.75C24.5738 3.75 25.2039 4.425 25.2039 5.25C25.2039 6.075 24.5738 6.75 23.8037 6.75C23.0336 6.75 22.4035 6.075 22.4035 5.25C22.4035 4.425 23.0336 3.75 23.8037 3.75ZM4.20065 9C6.13471 9 7.7012 7.32188 7.7012 5.25C7.7012 3.17812 6.13471 1.5 4.20065 1.5C2.2666 1.5 0.700109 3.17812 0.700109 5.25C0.700109 7.32188 2.2666 9 4.20065 9ZM4.20065 3.75C4.97078 3.75 5.60087 4.425 5.60087 5.25C5.60087 6.075 4.97078 6.75 4.20065 6.75C3.43054 6.75 2.80044 6.075 2.80044 5.25C2.80044 4.425 3.43054 3.75 4.20065 3.75ZM21.5459 13.6359C20.3425 11.7234 18.0147 11.0109 15.9537 11.6813C15.3324 11.8828 14.6804 11.9953 13.9978 11.9953C13.3152 11.9953 12.6632 11.8828 12.0419 11.6813C9.98093 11.0109 7.65307 11.7188 6.44976 13.6359C5.90717 14.4984 5.59212 15.5344 5.59212 16.65V18.75C5.59212 19.9922 6.53289 21 7.69245 21H20.2944C21.454 21 22.3947 19.9922 22.3947 18.75V16.65C22.4035 15.5344 22.0884 14.4984 21.5459 13.6359ZM20.3032 18.75H7.7012V16.65C7.7012 14.9438 8.9789 13.5469 10.5629 13.5C11.6787 13.9969 12.8339 14.25 14.0022 14.25C15.1705 14.25 16.3257 13.9969 17.4415 13.5C19.0255 13.5469 20.3032 14.9391 20.3032 16.65V18.75ZM24.3288 10.5H23.2786C22.5216 10.5 21.8172 10.7484 21.2308 11.1703C21.8172 11.6437 22.3335 12.2109 22.736 12.8672C22.9067 12.8016 23.0861 12.75 23.2743 12.75H24.3244C25.1908 12.75 25.8997 13.5094 25.8997 14.4375C25.8997 15.0562 26.3722 15.5625 26.9498 15.5625C27.5274 15.5625 28 15.0562 28 14.4375C28.0044 12.2672 26.3547 10.5 24.3288 10.5ZM14.0022 10.5C16.7107 10.5 18.9029 8.15156 18.9029 5.25C18.9029 2.34844 16.7107 0 14.0022 0C11.2936 0 9.10142 2.34844 9.10142 5.25C9.10142 8.15156 11.2936 10.5 14.0022 10.5ZM14.0022 2.25C15.5468 2.25 16.8026 3.59531 16.8026 5.25C16.8026 6.90469 15.5468 8.25 14.0022 8.25C12.4576 8.25 11.2017 6.90469 11.2017 5.25C11.2017 3.59531 12.4576 2.25 14.0022 2.25ZM6.77356 11.1703C6.18721 10.7484 5.48273 10.5 4.72574 10.5H3.67557C1.64963 10.5 0 12.2672 0 14.4375C0 15.0562 0.472574 15.5625 1.05016 15.5625C1.62775 15.5625 2.10033 15.0562 2.10033 14.4375C2.10033 13.5094 2.80919 12.75 3.67557 12.75H4.72574C4.91827 12.75 5.09767 12.8016 5.26395 12.8672C5.67088 12.2109 6.18721 11.6437 6.77356 11.1703Z" fill="#60738E"/>
</svg>
