<svg width="46" height="46" viewBox="0 0 46 46" fill="none" xmlns="http://www.w3.org/2000/svg">
<path d="M9.74016 34.4445C9.74016 34.0849 9.44867 33.7934 9.08912 33.7934C5.22419 33.7934 2.07992 30.6514 2.07992 26.7895C2.07992 24.0498 3.69302 21.546 6.18938 20.4109C6.51672 20.2621 6.66143 19.8761 6.51255 19.5487C6.36377 19.2214 5.97766 19.0767 5.6504 19.2256C2.69042 20.5716 0.777832 23.5405 0.777832 26.7895C0.777832 31.3694 4.50622 35.0955 9.08912 35.0955C9.44867 35.0955 9.74016 34.804 9.74016 34.4445Z" fill="#7427E6"/>
<path d="M14.4106 20.8444C15.3494 15.6019 19.9056 11.797 25.2443 11.797C29.3269 11.797 33.054 14.0372 34.971 17.6434C35.1398 17.9609 35.5339 18.0814 35.8514 17.9127C36.1689 17.7439 36.2895 17.3498 36.1207 17.0322C35.7561 16.3464 35.333 15.7047 34.8593 15.1121V6.4337L36.4343 4.55696C36.6473 4.63682 36.8777 4.68049 37.1184 4.68049C38.1954 4.68049 39.0715 3.80514 39.0715 2.7291C39.0715 1.65306 38.1953 0.77771 37.1184 0.77771C36.0415 0.77771 35.1652 1.65306 35.1652 2.7291C35.1652 3.09073 35.2642 3.42971 35.4365 3.72033L33.7095 5.77814C33.6112 5.89542 33.5572 6.04359 33.5572 6.19663V13.7194C32.4141 12.6728 31.0842 11.8528 29.6378 11.3016V6.75748C30.3956 6.48899 30.9399 5.76556 30.9399 4.91755C30.9399 3.84151 30.0638 2.96616 28.9868 2.96616C27.9098 2.96616 27.0336 3.84151 27.0336 4.91755C27.0336 5.76556 27.5779 6.48899 28.3357 6.75748V10.8868C27.3402 10.6296 26.3029 10.4949 25.2443 10.4949C24.7054 10.4949 24.1734 10.5296 23.651 10.5971V4.56903C24.4088 4.30054 24.9531 3.5771 24.9531 2.7291C24.9531 1.65306 24.077 0.77771 23 0.77771C21.923 0.77771 21.0468 1.65306 21.0468 2.7291C21.0468 3.5771 21.5911 4.30054 22.3489 4.56903V10.8368C20.6224 11.2518 19.0297 12.0307 17.6642 13.0954V6.75748C18.422 6.48899 18.9663 5.76556 18.9663 4.91755C18.9663 3.84151 18.0902 2.96616 17.0132 2.96616C15.9362 2.96616 15.06 3.84151 15.06 4.91755C15.06 5.76556 15.6043 6.48899 16.3621 6.75748V14.2688C14.9432 15.7436 13.885 17.5804 13.3414 19.6507C13.0373 19.4688 12.7235 19.3075 12.4014 19.1672V6.19672C12.4014 6.04359 12.3474 5.89542 12.2491 5.77823L10.5222 3.72042C10.6945 3.42971 10.7935 3.09073 10.7935 2.7291C10.7935 1.65306 9.91733 0.77771 8.84033 0.77771C7.76334 0.77771 6.88721 1.65306 6.88721 2.7291C6.88721 3.80514 7.76334 4.68049 8.84033 4.68049C9.08087 4.68049 9.31143 4.63682 9.52436 4.55696L11.0994 6.4337V18.7262C10.4494 18.5656 9.77601 18.4836 9.08894 18.4836C8.72939 18.4836 8.4379 18.7751 8.4379 19.1347C8.4379 19.4942 8.72939 19.7857 9.08894 19.7857C10.655 19.7857 12.1359 20.2903 13.3717 21.2449C13.4874 21.3343 13.6278 21.3807 13.7698 21.3807C13.8487 21.3807 13.928 21.3664 14.0039 21.3372C14.2163 21.2552 14.3705 21.0684 14.4106 20.8444ZM37.1184 2.07979C37.4774 2.07979 37.7694 2.37103 37.7694 2.7291C37.7694 3.08717 37.4774 3.3784 37.1184 3.3784C36.7593 3.3784 36.4673 3.08717 36.4673 2.7291C36.4673 2.37103 36.7593 2.07979 37.1184 2.07979ZM28.9868 4.26816C29.3458 4.26816 29.6378 4.55948 29.6378 4.91747C29.6378 5.27545 29.3458 5.56677 28.9868 5.56677C28.6277 5.56677 28.3357 5.27554 28.3357 4.91747C28.3357 4.55939 28.6277 4.26816 28.9868 4.26816ZM23 2.07979C23.359 2.07979 23.651 2.37103 23.651 2.7291C23.651 3.08717 23.359 3.3784 23 3.3784C22.6409 3.3784 22.3489 3.08717 22.3489 2.7291C22.3489 2.37103 22.6409 2.07979 23 2.07979ZM17.0132 4.26816C17.3722 4.26816 17.6642 4.55948 17.6642 4.91747C17.6642 5.27545 17.3722 5.56677 17.0132 5.56677C16.6541 5.56677 16.3621 5.27554 16.3621 4.91747C16.3621 4.55939 16.6541 4.26816 17.0132 4.26816ZM8.18929 2.7291C8.18929 2.37103 8.4813 2.07979 8.84033 2.07979C9.19936 2.07979 9.49137 2.37103 9.49137 2.7291C9.49137 3.08717 9.19936 3.3784 8.84033 3.3784C8.4813 3.3784 8.18929 3.08708 8.18929 2.7291Z" fill="#7427E6"/>
<path d="M38.9521 22.563C38.4768 22.563 38.0088 22.6156 37.5524 22.7197C37.5469 21.8131 37.4421 20.9099 37.2411 20.0339C37.1606 19.6833 36.8112 19.4645 36.4609 19.545C36.1104 19.6254 35.8915 19.9748 35.972 20.3252C36.1568 21.1301 36.2504 21.9613 36.2504 22.7953C36.2504 23.0498 36.2414 23.3091 36.2236 23.5662C36.2082 23.7894 36.3085 24.005 36.4893 24.137C36.6702 24.269 36.9061 24.2987 37.114 24.216C37.6985 23.9833 38.3169 23.8652 38.952 23.8652C41.6914 23.8652 43.92 26.0921 43.92 28.8294C43.92 31.5668 41.6913 33.7937 38.952 33.7937H36.8169C36.4574 33.7937 36.1659 34.0852 36.1659 34.4447C36.1659 34.8043 36.4574 35.0958 36.8169 35.0958H38.952C42.4094 35.0958 45.2221 32.2847 45.2221 28.8294C45.2222 25.3741 42.4094 22.563 38.9521 22.563Z" fill="#7427E6"/>
<path d="M31.6392 33.7935H25.6056C25.2461 33.7935 24.9546 34.085 24.9546 34.4445C24.9546 34.804 25.2461 35.0955 25.6056 35.0955H28.3359V41.4307C27.5781 41.6992 27.0338 42.4226 27.0338 43.2706C27.0338 44.3467 27.91 45.222 28.987 45.222C30.064 45.222 30.9401 44.3467 30.9401 43.2706C30.9401 42.4226 30.3958 41.6991 29.638 41.4307V35.0955H31.6392C31.9988 35.0955 32.2903 34.804 32.2903 34.4445C32.2903 34.085 31.9988 33.7935 31.6392 33.7935ZM28.987 43.92C28.6279 43.92 28.3359 43.6287 28.3359 43.2706C28.3359 42.9126 28.6279 42.6213 28.987 42.6213C29.346 42.6213 29.638 42.9127 29.638 43.2706C29.638 43.6286 29.346 43.92 28.987 43.92Z" fill="#7427E6"/>
<path d="M20.3926 33.7935H14.4643C14.1047 33.7935 13.8132 34.085 13.8132 34.4445C13.8132 34.804 14.1047 35.0955 14.4643 35.0955H16.3622V41.4307C15.6044 41.6992 15.0601 42.4226 15.0601 43.2706C15.0601 44.3467 15.9362 45.222 17.0132 45.222C18.0902 45.222 18.9664 44.3467 18.9664 43.2706C18.9664 42.4226 18.4221 41.6991 17.6643 41.4307V35.0955H20.3926C20.7521 35.0955 21.0436 34.804 21.0436 34.4445C21.0436 34.085 20.7521 33.7935 20.3926 33.7935ZM17.0132 43.92C16.6542 43.92 16.3622 43.6287 16.3622 43.2706C16.3622 42.9126 16.6542 42.6213 17.0132 42.6213C17.3723 42.6213 17.6643 42.9127 17.6643 43.2706C17.6643 43.6286 17.3723 43.92 17.0132 43.92Z" fill="#7427E6"/>
<path d="M11.7917 28.177C10.7147 28.177 9.83856 29.0524 9.83856 30.1284C9.83856 30.9764 10.3828 31.6998 11.1406 31.9683V40.8668L8.38283 44.1528C8.15167 44.4282 8.1876 44.8388 8.46304 45.07C8.585 45.1723 8.73352 45.2223 8.88118 45.2223C9.06694 45.2223 9.25149 45.1432 9.38023 44.9898L12.2904 41.5221C12.3887 41.4049 12.4427 41.2567 12.4427 41.1037V31.9682C13.2005 31.6997 13.7448 30.9763 13.7448 30.1283C13.7448 29.0523 12.8687 28.177 11.7917 28.177ZM11.7917 30.7777C11.4327 30.7777 11.1406 30.4865 11.1406 30.1284C11.1406 29.7703 11.4327 29.4791 11.7917 29.4791C12.1507 29.4791 12.4427 29.7704 12.4427 30.1284C12.4427 30.4864 12.1507 30.7777 11.7917 30.7777Z" fill="#7427E6"/>
<path d="M23 28.177C21.923 28.177 21.0469 29.0523 21.0469 30.1284C21.0469 30.9764 21.5911 31.6998 22.349 31.9683V44.5714C22.349 44.9309 22.6405 45.2224 23 45.2224C23.3595 45.2224 23.651 44.9309 23.651 44.5714V31.9683C24.4089 31.6998 24.9531 30.9764 24.9531 30.1284C24.9531 29.0523 24.077 28.177 23 28.177ZM23 30.7777C22.641 30.7777 22.349 30.4865 22.349 30.1284C22.349 29.7703 22.641 29.4791 23 29.4791C23.359 29.4791 23.651 29.7704 23.651 30.1284C23.651 30.4864 23.359 30.7777 23 30.7777Z" fill="#7427E6"/>
<path d="M34.8593 40.8668V31.9683C35.6171 31.6998 36.1614 30.9764 36.1614 30.1284C36.1614 29.0523 35.2852 28.177 34.2082 28.177C33.1313 28.177 32.2551 29.0523 32.2551 30.1284C32.2551 30.9764 32.7994 31.6998 33.5572 31.9683V41.1037C33.5572 41.2569 33.6112 41.405 33.7096 41.5222L36.6197 44.9898C36.7485 45.1433 36.933 45.2224 37.1188 45.2224C37.2664 45.2224 37.4149 45.1724 37.5369 45.0701C37.8123 44.8389 37.8482 44.4282 37.6171 44.1529L34.8593 40.8668ZM34.2082 29.4791C34.5673 29.4791 34.8593 29.7704 34.8593 30.1284C34.8593 30.4864 34.5673 30.7777 34.2082 30.7777C33.8492 30.7777 33.5572 30.4865 33.5572 30.1284C33.5572 29.7703 33.8492 29.4791 34.2082 29.4791Z" fill="#7427E6"/>
</svg>
