<svg width="30" height="30" viewBox="0 0 30 30" fill="none" xmlns="http://www.w3.org/2000/svg">
<path d="M18.7288 8.19133C18.7287 7.45384 18.51 6.73293 18.1002 6.11978C17.6904 5.50662 17.108 5.02875 16.4266 4.7466C15.7453 4.46444 14.9956 4.39067 14.2723 4.5346C13.549 4.67854 12.8846 5.03373 12.3632 5.55525C11.8418 6.07677 11.4867 6.74121 11.3429 7.46454C11.199 8.18787 11.2729 8.93761 11.5551 9.61895C11.8374 10.3003 12.3153 10.8826 12.9285 11.2924C13.5417 11.7021 14.2626 11.9208 15 11.9208C15.9887 11.9196 16.9365 11.5262 17.6356 10.8271C18.3346 10.1279 18.7278 9.18002 18.7288 8.19133ZM12.1544 8.19133C12.1545 7.62852 12.3215 7.07838 12.6342 6.61047C12.947 6.14256 13.3914 5.77789 13.9114 5.56258C14.4314 5.34727 15.0035 5.29099 15.5555 5.40085C16.1075 5.51071 16.6145 5.78178 17.0124 6.17978C17.4103 6.57778 17.6813 7.08484 17.791 7.63685C17.9008 8.18885 17.8444 8.761 17.629 9.28096C17.4136 9.80092 17.0489 10.2453 16.5809 10.558C16.113 10.8707 15.5628 11.0376 15 11.0376C14.2455 11.0367 13.5222 10.7365 12.9887 10.2029C12.4552 9.66933 12.1552 8.94588 12.1544 8.19133Z" fill="#7427E6"/>
<path d="M29.9707 29.4009L26.3709 19.9631C26.339 19.8796 26.2824 19.8077 26.2088 19.7569C26.1351 19.7062 26.0478 19.679 25.9583 19.679H19.1452C19.1868 19.6111 19.2282 19.5452 19.2698 19.4771C21.8914 15.1367 23.2106 11.3399 23.1917 8.19361C23.192 6.0209 22.3293 3.93703 20.7933 2.40043C19.2573 0.863828 17.1738 0.000368215 15.0011 1.17739e-07C12.8285 -0.00036798 10.7447 0.862385 9.20817 2.39846C7.67162 3.93454 6.8082 6.01812 6.80783 8.19083C6.7889 11.3399 8.10813 15.1372 10.7297 19.4771C10.7713 19.546 10.8127 19.6118 10.8543 19.679H4.04119C3.95174 19.679 3.86441 19.7062 3.79074 19.7569C3.71708 19.8077 3.66054 19.8796 3.62861 19.9631L0.0292559 29.4009C0.00360924 29.4678 -0.00537153 29.5399 0.00308951 29.611C0.0115505 29.6821 0.0371989 29.7501 0.0778186 29.8091C0.118438 29.8681 0.172807 29.9163 0.236229 29.9495C0.29965 29.9828 0.370216 30.0001 0.44183 30H29.5582C29.6298 30.0001 29.7003 29.9828 29.7638 29.9495C29.8272 29.9163 29.8816 29.8681 29.9222 29.8091C29.9628 29.7501 29.9884 29.6821 29.9969 29.611C30.0054 29.5399 29.9964 29.4678 29.9707 29.4009ZM7.69126 8.19159C7.69143 7.23176 7.88064 6.28136 8.24809 5.39465C8.61554 4.50795 9.15404 3.7023 9.83284 3.02371C10.5116 2.34513 11.3174 1.80689 12.2042 1.43973C13.091 1.07257 14.0415 0.883683 15.0013 0.883848C15.9611 0.884014 16.9114 1.07323 17.7981 1.4407C18.6848 1.80816 19.4904 2.34668 20.1689 3.0255C20.8475 3.70432 21.3857 4.51015 21.7529 5.39698C22.12 6.28382 22.3089 7.23428 22.3087 8.19411C22.3466 14.467 16.4822 22.2037 15 24.059C13.5178 22.2045 7.65316 14.4698 7.69126 8.19159ZM14.6636 25.0431C14.7051 25.0919 14.7566 25.131 14.8147 25.1579C14.8728 25.1847 14.936 25.1986 15 25.1986C15.064 25.1986 15.1272 25.1847 15.1853 25.1579C15.2434 25.131 15.2949 25.0919 15.3364 25.0431C16.5088 23.6148 17.5958 22.1184 18.5915 20.5617H25.6537L26.219 22.0442L12.4183 26.9526L7.49924 20.5609H11.408C12.4039 22.1179 13.491 23.6146 14.6636 25.0431ZM12.4029 27.8947H12.4055L20.6385 24.9674L23.8319 29.1168H8.96911L12.4029 27.8947ZM4.34576 20.5609H6.38466L11.543 27.2638L6.33394 29.1165H1.08277L4.34576 20.5609ZM24.9474 29.1168L21.5134 24.6548L26.5349 22.8689L28.9177 29.1168H24.9474Z" fill="#7427E6"/>
</svg>
