<svg width="30" height="30" viewBox="0 0 30 30" fill="none" xmlns="http://www.w3.org/2000/svg">
<path d="M13.4836 17.2643C13.3486 17.1294 13.1622 17.0518 12.9706 17.0518C12.7798 17.0518 12.5926 17.1294 12.4577 17.2643C12.3228 17.3992 12.2451 17.5864 12.2451 17.7773C12.2451 17.9688 12.3227 18.1553 12.4577 18.2902C12.5933 18.4259 12.7798 18.5034 12.9706 18.5034C13.1614 18.5034 13.3486 18.4259 13.4836 18.2902C13.6192 18.1553 13.6961 17.9687 13.6961 17.7773C13.6961 17.5865 13.6192 17.3993 13.4836 17.2643Z" fill="#7427E6"/>
<path d="M29.3636 23.8245L23.8054 18.2662C23.0655 17.5263 21.9015 17.4181 21.0379 18.0086L17.4904 20.4343C17.2025 20.6311 16.8147 20.5951 16.568 20.3483L15.3949 19.1752C15.1117 18.892 14.6524 18.892 14.3688 19.1752C14.0855 19.4585 14.0855 19.9178 14.3688 20.2013L15.5419 21.3744C16.2818 22.1143 17.4457 22.2228 18.3094 21.632L21.8568 19.2064C22.1446 19.0096 22.5326 19.0456 22.7793 19.2923L28.3376 24.8506C28.6204 25.1334 28.6203 25.5937 28.3375 25.8767C24.7733 29.4408 18.9739 29.4408 15.4098 25.8767L4.12348 14.5903C2.39682 12.8637 1.44608 10.5682 1.44608 8.12643C1.44608 5.68466 2.39689 3.38906 4.12355 1.66241C4.26058 1.52538 4.44274 1.45001 4.6365 1.45001C4.83033 1.45001 5.01256 1.52545 5.14952 1.66249L10.7077 7.22074C10.9543 7.46731 10.9904 7.85534 10.7937 8.14319L8.36815 11.6906C7.77744 12.5543 7.88582 13.7181 8.62568 14.4581L10.389 16.2215C10.6724 16.5047 11.1317 16.5047 11.4152 16.2215C11.6984 15.9382 11.6984 15.4788 11.4152 15.1954L9.65179 13.432C9.40522 13.1854 9.36909 12.7975 9.5659 12.5096L11.9915 8.96219C12.5821 8.0985 12.4737 6.93456 11.7338 6.1947L6.17563 0.636449C5.32703 -0.21215 3.94618 -0.21215 3.09744 0.636449C-1.03248 4.76642 -1.03248 11.4864 3.09744 15.6163L14.3837 26.9025C16.4487 28.9675 19.1612 30 21.8736 30C24.5861 29.9999 27.2985 28.9674 29.3635 26.9025C30.2121 26.0539 30.2121 24.6732 29.3636 23.8245Z" fill="#7427E6"/>
<path d="M9.77301 10.6982L5.37505 6.30029C5.09162 6.01709 4.63236 6.01709 4.34893 6.30029C4.06566 6.58364 4.06566 7.04305 4.34893 7.3264L8.74697 11.7243C8.88864 11.8659 9.0742 11.9368 9.25999 11.9368C9.44562 11.9368 9.63133 11.8659 9.77301 11.7243C10.0563 11.441 10.0563 10.9816 9.77301 10.6982Z" fill="#7427E6"/>
<path d="M26.6052 27.5297L21.9778 22.9023C21.6944 22.6191 21.2351 22.6191 20.9517 22.9023C20.6684 23.1857 20.6684 23.6451 20.9517 23.9285L25.5791 28.5558C25.7208 28.6974 25.9064 28.7683 26.0921 28.7683C26.2778 28.7683 26.4635 28.6974 26.6052 28.5558C26.8885 28.2724 26.8885 27.8131 26.6052 27.5297Z" fill="#7427E6"/>
</svg>
