<svg width="30" height="30" viewBox="0 0 30 30" fill="none" xmlns="http://www.w3.org/2000/svg">
<path d="M15 30C6.71575 30 0 23.2843 0 15C0 6.71575 6.71575 0 15 0C23.2843 0 30 6.71575 30 15C29.9906 23.2804 23.2804 29.9906 15 30ZM15 1C7.268 1 1 7.268 1 15C1 22.732 7.268 29 15 29C22.732 29 29 22.732 29 15C28.9912 7.27169 22.7283 1.00881 15 1Z" fill="#288DD5"/>
<path d="M15.0002 27.5005C8.09668 27.5005 2.50024 21.9041 2.50024 15.0005C2.50024 8.09693 8.09668 2.50049 15.0002 2.50049C21.9038 2.50049 27.5002 8.09693 27.5002 15.0005C27.4926 21.9009 21.9006 27.4928 15.0002 27.5005ZM15.0002 3.50049C8.64899 3.50049 3.50024 8.64924 3.50024 15.0005C3.50024 21.3517 8.64899 26.5005 15.0002 26.5005C21.3515 26.5005 26.5002 21.3517 26.5002 15.0005C26.4931 8.65218 21.3486 3.50768 15.0002 3.50049Z" fill="#288DD5"/>
<path d="M15.5 24.9995H14.5V23.9995H15.5V24.9995Z" fill="#288DD5"/>
<path d="M15.5 6.00049H14.5V5.00049H15.5V6.00049Z" fill="#288DD5"/>
<path d="M10.4316 23.9095L9.56616 23.4097L10.066 22.5442L10.9315 23.0441L10.4316 23.9095Z" fill="#288DD5"/>
<path d="M19.9297 7.45835L19.0642 6.9585L19.5641 6.09303L20.4295 6.59288L19.9297 7.45835Z" fill="#288DD5"/>
<path d="M6.58911 20.4329L6.08911 19.5669L6.95511 19.0669L7.45511 19.9329L6.58911 20.4329Z" fill="#288DD5"/>
<path d="M23.042 10.9309L22.542 10.0649L23.408 9.56494L23.908 10.4309L23.042 10.9309Z" fill="#288DD5"/>
<path d="M5.99976 15.4995H4.99976V14.4995H5.99976V15.4995Z" fill="#288DD5"/>
<path d="M25 15.4995H24V14.4995H25V15.4995Z" fill="#288DD5"/>
<path d="M6.95594 10.933L6.08984 10.4331L6.58974 9.567L7.45584 10.0669L6.95594 10.933Z" fill="#288DD5"/>
<path d="M23.408 20.4331L22.542 19.9331L23.042 19.0671L23.908 19.5671L23.408 20.4331Z" fill="#288DD5"/>
<path d="M10.0636 7.45629L9.56372 6.59082L10.4292 6.09097L10.929 6.95644L10.0636 7.45629Z" fill="#288DD5"/>
<path d="M19.566 23.9089L19.0662 23.0435L19.9316 22.5436L20.4315 23.4091L19.566 23.9089Z" fill="#288DD5"/>
<path d="M14.4999 22.9995V15.2825L9.74243 12.428L10.2574 11.571L15.2574 14.571C15.4079 14.6614 15.4999 14.824 15.4999 14.9995V22.9995H14.4999Z" fill="#288DD5"/>
</svg>
